<svg width="9" height="13" viewBox="0 0 9 13" fill="none" xmlns="http://www.w3.org/2000/svg">
<path d="M8.55469 2.41504C8.83594 2.69629 9 3.07129 9 3.46973V10.7119C9 11.5557 8.32031 12.2119 7.5 12.2119H1.5C0.65625 12.2119 0 11.5557 0 10.7119V1.71191C0 0.891602 0.65625 0.211914 1.5 0.211914H5.74219C6.14062 0.211914 6.51562 0.375977 6.79688 0.657227L8.55469 2.41504ZM7.875 10.7119H7.85156V3.96191H6C5.57812 3.96191 5.25 3.63379 5.25 3.21191V1.36035H1.5C1.28906 1.36035 1.125 1.52441 1.125 1.73535V10.7119C1.125 10.9229 1.28906 11.0869 1.5 11.0869H7.5C7.6875 11.0869 7.875 10.9229 7.875 10.7119ZM2.25 3.21191C2.03906 3.21191 1.875 3.04785 1.875 2.83691C1.875 2.64941 2.03906 2.46191 2.25 2.46191H4.125C4.3125 2.46191 4.5 2.64941 4.5 2.83691C4.5 3.04785 4.3125 3.21191 4.125 3.21191H2.25ZM4.5 4.33691C4.5 4.54785 4.3125 4.71191 4.125 4.71191H2.25C2.03906 4.71191 1.875 4.54785 1.875 4.33691C1.875 4.14941 2.03906 3.96191 2.25 3.96191H4.125C4.3125 3.96191 4.5 4.14941 4.5 4.33691ZM4.61719 7.4541C5.13281 7.61816 6.11719 7.87598 5.92969 8.90723C5.85938 9.39941 5.48438 9.7041 4.96875 9.82129V9.96191C4.96875 10.2432 4.75781 10.4307 4.5 10.4307C4.21875 10.4307 4.03125 10.2432 4.03125 9.96191V9.82129C3.82031 9.77441 3.60938 9.7041 3.42188 9.63379L3.32812 9.61035C3.09375 9.5166 2.95312 9.25879 3.04688 9.00098C3.14062 8.7666 3.39844 8.62598 3.65625 8.71973L3.75 8.7666C3.9375 8.81348 4.14844 8.90723 4.3125 8.93066C4.61719 8.97754 4.99219 8.93066 5.01562 8.74316C5.03906 8.62598 5.03906 8.55566 4.35938 8.36816L4.21875 8.32129C3.82031 8.2041 2.85938 7.92285 3.04688 6.91504C3.11719 6.42285 3.49219 6.09473 4.03125 5.97754V5.83691C4.03125 5.5791 4.21875 5.36816 4.5 5.36816C4.75781 5.36816 4.96875 5.5791 4.96875 5.83691V6.00098C5.08594 6.02441 5.22656 6.07129 5.39062 6.11816C5.64844 6.21191 5.76562 6.46973 5.67188 6.72754C5.60156 6.96191 5.32031 7.10254 5.08594 7.00879C4.94531 6.96191 4.80469 6.91504 4.66406 6.8916C4.35938 6.84473 3.98438 6.8916 3.96094 7.0791C3.9375 7.17285 3.9375 7.2666 4.47656 7.43066L4.61719 7.4541Z" fill="#00A1DE"/>
</svg>
