<svg width="11" height="13" viewBox="0 0 11 13" fill="none" xmlns="http://www.w3.org/2000/svg">
<path d="M3.75 10.1431C3.75 10.354 3.5625 10.5181 3.375 10.5181C3.16406 10.5181 3 10.354 3 10.1431V5.26807C3 5.08057 3.16406 4.89307 3.375 4.89307C3.5625 4.89307 3.75 5.08057 3.75 5.26807V10.1431ZM5.625 10.1431C5.625 10.354 5.4375 10.5181 5.25 10.5181C5.03906 10.5181 4.875 10.354 4.875 10.1431V5.26807C4.875 5.08057 5.03906 4.89307 5.25 4.89307C5.4375 4.89307 5.625 5.08057 5.625 5.26807V10.1431ZM7.5 10.1431C7.5 10.354 7.3125 10.5181 7.125 10.5181C6.91406 10.5181 6.75 10.354 6.75 10.1431V5.26807C6.75 5.08057 6.91406 4.89307 7.125 4.89307C7.3125 4.89307 7.5 5.08057 7.5 5.26807V10.1431ZM7.42969 1.354L8.29688 2.64307H9.9375C10.2422 2.64307 10.5 2.90088 10.5 3.20557C10.5 3.53369 10.2422 3.76807 9.9375 3.76807H9.75V10.8931C9.75 11.9478 8.90625 12.7681 7.875 12.7681H2.625C1.57031 12.7681 0.75 11.9478 0.75 10.8931V3.76807H0.5625C0.234375 3.76807 0 3.53369 0 3.20557C0 2.90088 0.234375 2.64307 0.5625 2.64307H2.17969L3.04688 1.354C3.28125 1.00244 3.70312 0.768066 4.14844 0.768066H6.32812C6.77344 0.768066 7.19531 1.00244 7.42969 1.354ZM3.53906 2.64307H6.9375L6.49219 1.98682C6.46875 1.93994 6.39844 1.89307 6.32812 1.89307H4.14844C4.07812 1.89307 4.00781 1.93994 3.98438 1.98682L3.53906 2.64307ZM1.875 10.8931C1.875 11.3149 2.20312 11.6431 2.625 11.6431H7.875C8.27344 11.6431 8.625 11.3149 8.625 10.8931V3.76807H1.875V10.8931Z" fill="#F5222D"/>
</svg>
