<svg width="44" height="44" viewBox="0 0 44 44" fill="none" xmlns="http://www.w3.org/2000/svg">
<path d="M18.25 28.75C18.25 29.1719 17.875 29.5 17.5 29.5C17.0781 29.5 16.75 29.1719 16.75 28.75V18.25C16.75 17.875 17.0781 17.5 17.5 17.5C17.875 17.5 18.25 17.875 18.25 18.25V28.75ZM22.75 28.75C22.75 29.1719 22.375 29.5 22 29.5C21.5781 29.5 21.25 29.1719 21.25 28.75V18.25C21.25 17.875 21.5781 17.5 22 17.5C22.375 17.5 22.75 17.875 22.75 18.25V28.75ZM27.25 28.75C27.25 29.1719 26.875 29.5 26.5 29.5C26.0781 29.5 25.75 29.1719 25.75 28.75V18.25C25.75 17.875 26.0781 17.5 26.5 17.5C26.875 17.5 27.25 17.875 27.25 18.25V28.75ZM26.0312 11.0781L27.25 13H31.75C32.125 13 32.5 13.375 32.5 13.75C32.5 14.1719 32.125 14.5 31.75 14.5H31V30.25C31 32.3594 29.3125 34 27.25 34H16.75C14.6406 34 13 32.3594 13 30.25V14.5H12.25C11.8281 14.5 11.5 14.1719 11.5 13.75C11.5 13.375 11.8281 13 12.25 13H16.7031L17.9219 11.0781C18.2969 10.4219 19.0469 10 19.7969 10H24.1562C24.9062 10 25.6562 10.4219 26.0312 11.0781ZM18.4375 13H25.5156L24.7656 11.875C24.625 11.6406 24.3906 11.5 24.1562 11.5H19.7969C19.5625 11.5 19.3281 11.6406 19.1875 11.875L18.4375 13ZM14.5 30.25C14.5 31.5156 15.4844 32.5 16.75 32.5H27.25C28.4688 32.5 29.5 31.5156 29.5 30.25V14.5H14.5V30.25Z" fill="#F5222D"/>
<rect x="0.5" y="0.5" width="43" height="43" rx="4.5" stroke="#CCDBE1"/>
</svg>
