<svg width="11" height="15" viewBox="0 0 11 15" fill="none" xmlns="http://www.w3.org/2000/svg">
<path d="M10.2305 3.32031C10.5586 3.64844 10.75 4.08594 10.75 4.55078V13C10.75 13.9844 9.95703 14.75 9 14.75H2C1.01562 14.75 0.25 13.9844 0.25 13V2.5C0.25 1.54297 1.01562 0.75 2 0.75H6.94922C7.41406 0.75 7.85156 0.941406 8.17969 1.26953L10.2305 3.32031ZM9.4375 13H9.41016V5.125H7.25C6.75781 5.125 6.375 4.74219 6.375 4.25V2.08984H2C1.75391 2.08984 1.5625 2.28125 1.5625 2.52734V13C1.5625 13.2461 1.75391 13.4375 2 13.4375H9C9.21875 13.4375 9.4375 13.2461 9.4375 13ZM2.875 4.25C2.62891 4.25 2.4375 4.05859 2.4375 3.8125C2.4375 3.59375 2.62891 3.375 2.875 3.375H5.0625C5.28125 3.375 5.5 3.59375 5.5 3.8125C5.5 4.05859 5.28125 4.25 5.0625 4.25H2.875ZM5.5 5.5625C5.5 5.80859 5.28125 6 5.0625 6H2.875C2.62891 6 2.4375 5.80859 2.4375 5.5625C2.4375 5.34375 2.62891 5.125 2.875 5.125H5.0625C5.28125 5.125 5.5 5.34375 5.5 5.5625ZM5.63672 9.19922C6.23828 9.39062 7.38672 9.69141 7.16797 10.8945C7.08594 11.4688 6.64844 11.8242 6.04688 11.9609V12.125C6.04688 12.4531 5.80078 12.6719 5.5 12.6719C5.17188 12.6719 4.95312 12.4531 4.95312 12.125V11.9609C4.70703 11.9062 4.46094 11.8242 4.24219 11.7422L4.13281 11.7148C3.85938 11.6055 3.69531 11.3047 3.80469 11.0039C3.91406 10.7305 4.21484 10.5664 4.51562 10.6758L4.625 10.7305C4.84375 10.7852 5.08984 10.8945 5.28125 10.9219C5.63672 10.9766 6.07422 10.9219 6.10156 10.7031C6.12891 10.5664 6.12891 10.4844 5.33594 10.2656L5.17188 10.2109C4.70703 10.0742 3.58594 9.74609 3.80469 8.57031C3.88672 7.99609 4.32422 7.61328 4.95312 7.47656V7.3125C4.95312 7.01172 5.17188 6.76562 5.5 6.76562C5.80078 6.76562 6.04688 7.01172 6.04688 7.3125V7.50391C6.18359 7.53125 6.34766 7.58594 6.53906 7.64062C6.83984 7.75 6.97656 8.05078 6.86719 8.35156C6.78516 8.625 6.45703 8.78906 6.18359 8.67969C6.01953 8.625 5.85547 8.57031 5.69141 8.54297C5.33594 8.48828 4.89844 8.54297 4.87109 8.76172C4.84375 8.87109 4.84375 8.98047 5.47266 9.17188L5.63672 9.19922Z" fill="white"/>
</svg>
