<svg width="12" height="12" viewBox="0 0 12 12" fill="none" xmlns="http://www.w3.org/2000/svg">
<path d="M4.10156 4.10156C4.3125 3.89062 4.66406 3.89062 4.875 4.10156L5.97656 5.22656L7.10156 4.10156C7.3125 3.89062 7.66406 3.89062 7.875 4.10156C8.10938 4.33594 8.10938 4.6875 7.875 4.89844L6.77344 6L7.875 7.10156C8.10938 7.33594 8.10938 7.6875 7.875 7.89844C7.66406 8.13281 7.3125 8.13281 7.10156 7.89844L5.97656 6.79688L4.875 7.89844C4.66406 8.13281 4.3125 8.13281 4.10156 7.89844C3.86719 7.6875 3.86719 7.33594 4.10156 7.10156L5.20312 6L4.10156 4.89844C3.86719 4.6875 3.86719 4.33594 4.10156 4.10156ZM12 6C12 9.32812 9.30469 12 6 12C2.67188 12 0 9.32812 0 6C0 2.69531 2.67188 0 6 0C9.30469 0 12 2.69531 12 6ZM6 1.125C3.30469 1.125 1.125 3.32812 1.125 6C1.125 8.69531 3.30469 10.875 6 10.875C8.67188 10.875 10.875 8.69531 10.875 6C10.875 3.32812 8.67188 1.125 6 1.125Z" fill="#F5222D"/>
</svg>
