<svg width="81" height="81" viewBox="0 0 81 81" fill="none" xmlns="http://www.w3.org/2000/svg">
<g id="AB " clip-path="url(#clip0_1_625)">
<g id="XMLID_15_">
<path id="Ellipse 127" d="M79.6216 41.3933C79.6216 62.649 62.3904 79.8801 41.1348 79.8801C19.8791 79.8801 2.64795 62.649 2.64795 41.3933C2.64795 20.1376 19.8791 2.90649 41.1348 2.90649C62.3904 2.90649 79.6216 20.1376 79.6216 41.3933Z" fill="white" stroke="#13507A"/>
<path id="XMLID_18_" d="M40.0081 65.0325C53.2629 65.0325 64.0081 54.2873 64.0081 41.0325C64.0081 27.7777 53.2629 17.0325 40.0081 17.0325C26.7533 17.0325 16.0081 27.7777 16.0081 41.0325C16.0081 54.2873 26.7533 65.0325 40.0081 65.0325Z" fill="url(#paint0_radial_1_625)"/>
<path id="XMLID_17_" d="M26.5613 65.9403C17.8237 61.0609 13.3982 53.6283 13.4549 43.6992C13.5117 30.99 19.6961 23.7275 22.5329 21.0609V24.6921H25.3698V15.6708L14.079 17.3729L14.4762 20.1531L20.2067 19.302C16.8592 22.5361 10.618 30.3091 10.5613 43.6992C10.5046 54.5928 15.5542 63.1602 25.1996 68.4368C32.3485 72.4084 39.4407 73.146 39.7812 73.2027L40.0648 70.3658C40.0648 70.3658 33.2563 69.6283 26.5613 65.9403Z" fill="#0A8BEA"/>
<path id="XMLID_16_" d="M51.9797 18.0538C60.7173 22.7063 65.1429 29.912 65.0861 39.4439C65.0294 51.6424 58.845 58.6212 56.0081 61.2311V58.1673H53.1712V66.3942L64.462 64.7488L64.0648 62.0254L58.3343 62.8765C61.6819 59.7559 67.923 52.2666 67.9797 39.4439C68.0365 29.0042 62.9868 20.7772 53.3414 15.6141C46.1925 11.8127 39.1003 11.0751 38.7599 11.0751L38.4762 13.7985C38.4762 13.7985 45.2847 14.4793 51.9797 18.0538Z" fill="#606060"/>
</g>
</g>
<defs>
<radialGradient id="paint0_radial_1_625" cx="0" cy="0" r="1" gradientUnits="userSpaceOnUse" gradientTransform="translate(39.9797 41.0041) scale(23.9716)">
<stop stop-color="#15C1FF"/>
<stop offset="1" stop-color="#005BAA"/>
</radialGradient>
<clipPath id="clip0_1_625">
<rect width="80" height="80" fill="white" transform="translate(0.121582 0.862305)"/>
</clipPath>
</defs>
</svg>
