<svg width="81" height="81" viewBox="0 0 81 81" fill="none" xmlns="http://www.w3.org/2000/svg">
<g id="Access bank">
<circle id="Ellipse 121" cx="40.5966" cy="40.6014" r="39.1975" fill="white" stroke="#E8822E"/>
<g id="access">
<g id="access_2">
<path id="XMLID_19_" d="M72.5956 43.4639L40.9146 74.5481L9.97955 43.4141L22.5624 30.4085H28.1576L15.7239 43.6628L41.3373 69.3508L67.2491 43.2401L36.8612 13.25V7.53052L72.5956 43.4639Z" fill="#E8822E"/>
<path id="XMLID_18_" d="M37.1098 16.7314V23.1969L57.7994 43.5881L41.2875 60.498L24.0296 43.3395L36.3638 31.1545H31.1416L18.8323 43.5384L41.3372 65.372L63.2703 43.1157L37.1098 16.7314Z" fill="#E8822E"/>
<path id="XMLID_15_" d="M41.0886 30.533L28.5306 43.2153L41.0886 56.395L54.0196 43.464L41.0886 30.533ZM34.1257 43.464L41.5113 35.8794L49.0462 43.464L41.2627 51.4215L34.1257 43.464Z" fill="#E8822E"/>
</g>
</g>
</g>
</svg>
