<svg width="80" height="80" viewBox="0 0 80 80" fill="none" xmlns="http://www.w3.org/2000/svg">
<g id="Frame" clip-path="url(#clip0_1_250)">
<path id="Vector" d="M40 80C17.9086 80 0 62.0914 0 40C0 17.9086 17.9086 0 40 0C62.0914 0 80 17.9086 80 40C80 62.0914 62.0914 80 40 80Z" fill="#E92029"/>
<path id="Vector_2" d="M22.028 49.9937C33.7812 64.975 51.0655 72.1187 57.5187 65.2031C63.9718 58.2875 51.9874 45.3843 46.4562 48.15C40.9249 50.9156 45.0749 54.6031 49.6812 59.2125C54.2905 63.8218 50.603 65.6656 42.7687 61.0562C34.9343 56.4468 19.2624 37.0875 25.7155 32.0187C32.1687 26.95 45.0749 38.0093 53.3718 42.6187C61.6687 47.2281 70.4249 44.9218 68.5812 36.1656C66.7374 27.4093 47.8405 12.1968 31.7062 12.1968C31.7062 12.1968 24.7937 11.7375 19.2624 17.7281C12.1718 25.4062 14.5593 40.475 22.028 49.9937Z" fill="white"/>
</g>
<defs>
<clipPath id="clip0_1_250">
<rect width="80" height="80" fill="white" transform="matrix(-1 0 0 1 80 0)"/>
</clipPath>
</defs>
</svg>
