<svg width="70" height="70" viewBox="0 0 70 70" fill="none" xmlns="http://www.w3.org/2000/svg">
<g id="Bank of kigali" clip-path="url(#clip0_1_108)">
<g id="XMLID_15_">
<path id="XMLID_19_" d="M35 70C54.33 70 70 54.33 70 35C70 15.67 54.33 0 35 0C15.67 0 0 15.67 0 35C0 54.33 15.67 70 35 70Z" fill="#304BA0"/>
<path id="XMLID_18_" d="M19.7916 9.375H12.4583V59.9167H19.7916V9.375Z" fill="white"/>
<path id="XMLID_17_" d="M18.7083 59.7916V57.0833C24.9583 57.0833 30.125 51.9583 30.125 45.6666C30.125 39.375 24.9583 34.2916 18.7083 34.2916V31.5833C26.625 31.5833 32.8333 37.9166 32.8333 45.7083C32.8333 53.5 26.625 59.7916 18.7083 59.7916Z" fill="white"/>
<path id="XMLID_16_" d="M53.7083 34.2917V31.5834C47.4583 31.5834 42.4583 35.75 39.9583 41.5V9.54169H32.4583V59.9584H39.9583V49.9167C42.4583 55.6667 47.4583 59.8334 53.7083 59.8334V57.0834C47.4583 57.0834 42.2916 51.9584 42.2916 45.6667C42.2916 39.375 47.4583 34.2917 53.7083 34.2917Z" fill="white"/>
</g>
</g>
<defs>
<clipPath id="clip0_1_108">
<rect width="70" height="70" fill="white"/>
</clipPath>
</defs>
</svg>
