<svg width="71" height="71" viewBox="0 0 71 71" fill="none" xmlns="http://www.w3.org/2000/svg">
<g id="Ban of rwanda" clip-path="url(#clip0_1_582)">
<g id="XMLID_15_">
<path id="XMLID_18_" d="M35.2322 70.2248C54.5621 70.2248 70.2322 54.5548 70.2322 35.2248C70.2322 15.8948 54.5621 0.224792 35.2322 0.224792C15.9022 0.224792 0.232178 15.8948 0.232178 35.2248C0.232178 54.5548 15.9022 70.2248 35.2322 70.2248Z" fill="#0F6B3D"/>
<path id="XMLID_17_" d="M69.8868 30.159H36.5562V23.9995C46.3424 23.3087 54.0562 16.3432 56.0134 7.13269H13.9904C15.9476 16.2857 23.316 23.136 33.1022 23.9995V30.159H0.289734V34.1886H33.1022V70.1097L36.5562 70.1672V34.1886H70.2322L69.8868 30.159Z" fill="#020202"/>
<path id="XMLID_16_" d="M15.2568 8.85969H31.9509V23.9995H36.5562V8.85969H54.8045C54.8045 8.85969 50.1417 2.52745 33.5052 2.35476C20.8407 2.23962 15.2568 8.85969 15.2568 8.85969Z" fill="white"/>
</g>
</g>
<defs>
<clipPath id="clip0_1_582">
<rect width="70" height="70" fill="white" transform="translate(0.232178 0.224792)"/>
</clipPath>
</defs>
</svg>
