<svg width="81" height="80" viewBox="0 0 81 80" fill="none" xmlns="http://www.w3.org/2000/svg">
<g id="bpr">
<circle id="Ellipse 118" cx="40.982" cy="40" r="40" fill="#001948"/>
<g id="Group 306">
<g id="XMLID_99_">
<path id="XMLID_123_" d="M23.3609 32.4199C21.6603 32.4199 19.815 32.8903 18.7295 33.6863V25.3643H14.0258V41.6465H14.0981C14.0981 46.7121 18.223 50.8369 23.2885 50.8369C28.3541 50.8369 32.5151 46.6759 32.5151 41.6103C32.5151 36.5447 28.4265 32.4199 23.3609 32.4199ZM23.2885 46.1332C20.7919 46.1332 18.7657 44.1069 18.7657 41.6103C18.7657 39.1137 20.7919 37.0875 23.2885 37.0875C25.7851 37.0875 27.8114 39.1137 27.8114 41.6103C27.8114 44.1069 25.7851 46.1332 23.2885 46.1332Z" fill="white"/>
<path id="XMLID_120_" d="M43.3338 32.4199C38.2682 32.4199 34.1434 36.5085 34.1434 41.5741C34.1434 42.2254 34.2157 43.0938 34.3605 43.4556H34.3243V59.7378H39.028V49.679C40.1135 50.4027 41.8141 50.8007 43.4061 50.8007C48.4717 50.8007 52.5966 46.6759 52.5966 41.6103C52.5604 36.5447 48.3994 32.4199 43.3338 32.4199ZM43.3338 46.1331C40.8372 46.1331 38.8109 44.1069 38.8109 41.6103C38.8109 39.1137 40.8372 37.0874 43.3338 37.0874C45.8304 37.0874 47.8566 39.1137 47.8566 41.6103C47.8566 44.1069 45.8304 46.1331 43.3338 46.1331Z" fill="white"/>
<path id="XMLID_103_" d="M60.412 49.8238L55.7445 49.6791C55.7445 49.6067 55.9254 44.0346 55.7445 39.8735C55.6359 36.9427 57.1556 34.229 59.7607 32.7817C62.4745 31.2982 65.6947 31.5153 68.3722 33.3607L65.6947 37.196C64.5007 36.3638 63.1619 36.2191 62.0041 36.8704C60.9548 37.4493 60.3397 38.5348 60.3759 39.6564C60.5929 44.0345 60.412 49.6067 60.412 49.8238Z" fill="white"/>
</g>
<path id="XMLID_36_" d="M40.9819 80C18.9104 80 1 62.0534 1 40.0181C1 17.9466 18.9466 0 40.9819 0C63.0534 0 80.9638 17.9466 80.9638 39.9819C81 62.0534 63.0534 80 40.9819 80ZM40.9819 1.44731C19.7427 1.44731 2.44731 18.7427 2.44731 39.9819C2.44731 61.2212 19.7427 78.5165 40.9819 78.5165C62.2212 78.5165 79.5165 61.2212 79.5165 39.9819C79.5165 18.7427 62.2574 1.44731 40.9819 1.44731Z" fill="#172960"/>
</g>
</g>
</svg>
