<svg width="80" height="80" viewBox="0 0 80 80" fill="none" xmlns="http://www.w3.org/2000/svg">
<g id="cbc">
<circle id="Ellipse 125" cx="40.2665" cy="39.8029" r="38.6975" fill="white" stroke="black" stroke-width="2"/>
<g id="CBC">
<path id="XMLID_160_" d="M14.8349 13.9565H27.4989C27.4989 13.9565 35.4591 15.7657 35.4591 21.6635C35.4591 27.5612 35.4591 62.0796 35.4591 62.0796C35.4591 62.0796 29.2356 62.0796 23.5188 62.0796C17.8019 62.0796 14.8349 56.3989 14.8349 51.9122C14.8349 47.4256 14.8349 13.9565 14.8349 13.9565Z" fill="#FFA506"/>
<path id="XMLID_159_" d="M41.6825 14.3183C41.6825 14.3183 51.8137 13.9564 56.4089 14.065C60.9679 14.1735 62.5961 17.9365 62.5961 20.5055C62.5961 23.0745 62.5961 35.7023 62.5961 35.7023H45.7712C45.7712 35.7023 40.1628 35.6299 40.1628 29.6597C40.1628 23.6896 40.1628 14.3545 40.1628 14.3545H41.6825V14.3183Z" fill="#0A0A0A"/>
<path id="XMLID_158_" d="M61.4383 40.0081C61.4383 40.0081 51.1262 39.7186 46.531 39.8272C41.972 39.9357 40.1628 43.8434 40.1628 46.4486C40.1628 49.0537 40.1628 62.0795 40.1628 62.0795H57.3496C57.3496 62.0795 62.5961 61.8624 62.5961 55.7837C62.5961 49.705 62.5961 40.0081 62.5961 40.0081H61.4383Z" fill="#A0A0A0"/>
</g>
</g>
</svg>
