<svg width="80" height="80" viewBox="0 0 80 80" fill="none" xmlns="http://www.w3.org/2000/svg">
<g id="coge bank">
<circle id="Ellipse 124" cx="40" cy="39.6975" r="38.6975" fill="white" stroke="#F3C300" stroke-width="2"/>
<g id="coge bank_2">
<g id="XMLID_71_">
<path id="XMLID_75_" d="M17.086 26.8959L38.5158 37.9367C38.5158 37.9367 41.1946 39.9276 44.9231 37.9367C48.6516 35.9457 66.8959 26.2081 66.8959 26.2081C66.8959 26.2081 68.4887 25.4118 65.8461 24.0724C63.2036 22.733 55.5656 19.1493 55.5656 19.1493L44.6335 25.0136L48.1086 27.0045L45.7195 28.9955L35.5837 22.8778L37.9728 21.6833L42.2081 24.0724L53.4299 18.0634C53.4299 18.0634 45.4298 13.7919 43.6923 12.9955C41.9547 12.1991 40.6154 12.1991 39.0226 12.9955C37.4299 13.7919 18.1357 23.3846 17.0498 23.9276C16.0362 24.4706 14.8416 25.7376 17.086 26.8959Z" fill="#CE7A23"/>
<path id="XMLID_74_" d="M39.638 41.267L13.7557 28.3439V53.2489L39.819 67.3666V55.9276L27.5113 49.1222V54.2987L24.9774 53.1041V44.7421L39.8552 52.3077L39.638 41.267Z" fill="#211E1B"/>
<path id="XMLID_73_" d="M42.3529 41.1222L66.4615 28.3439C66.4615 28.3439 70.0814 28.7421 70.19 34.0634C70.3348 39.3847 67.9095 40.4706 67.9095 40.4706L42.3167 53.1041V41.1222H42.3529Z" fill="#F3C300"/>
<path id="XMLID_72_" d="M42.3529 55.4932L66.4615 42.7149C66.4615 42.7149 70.0814 43.1131 70.19 48.4344C70.3348 53.7556 67.9095 54.8416 67.9095 54.8416L42.3167 67.4751V55.4932H42.3529Z" fill="#F3C300"/>
</g>
</g>
</g>
</svg>
