<svg width="71" height="70" viewBox="0 0 71 70" fill="none" xmlns="http://www.w3.org/2000/svg">
<g id="Ecobank">
<g id="Group">
<g id="Group_2">
<path id="Vector" d="M35.4263 70H35C15.664 70 0 54.336 0 35C0 15.664 15.664 0 35 0H35.4263C54.7485 0 70.4126 15.664 70.4126 34.9862V35.0138C70.4126 54.2534 54.666 70 35.4263 70Z" fill="#1565A6"/>
</g>
<g id="XMLID_13_">
<path id="XMLID_10_" d="M13.6286 28.6189L12.9548 32.4696H16.1866L16.0628 33.4598H12.7622L12.0334 37.6543H16.0078L15.8428 38.8095C15.8428 38.8095 14.8389 38.8095 13.3673 38.8095C11.9096 38.8095 10.2593 38.9607 10.4793 37.8055C10.7131 36.6503 11.8683 29.6366 12.0059 28.9215C12.1434 28.1926 12.2947 27.6287 13.1336 27.6287C13.9862 27.6287 17.3693 27.6287 17.3693 27.6287L17.1218 28.6602L13.6286 28.6189Z" fill="white"/>
<path id="XMLID_9_" d="M22.7054 30.5166L22.1553 31.2868C22.1553 31.2868 21.9627 30.943 21.1376 30.8605C19.9274 30.7229 18.6071 32.0294 18.1946 34.3811C17.7682 36.7465 18.7997 37.7642 19.7073 37.7917C20.615 37.8192 21.1651 37.2829 21.1651 37.2829L21.3851 38.2455C21.3851 38.2455 20.8075 39.0294 19.1435 38.9332C17.4794 38.8231 16.2692 37.2554 16.7093 34.2436C17.1494 31.2318 19.6111 29.774 21.0551 29.8428C22.4991 29.9115 22.7054 30.5166 22.7054 30.5166Z" fill="white"/>
<path id="XMLID_22_" d="M27.3123 29.9116C25.9233 29.6503 23.9155 30.2966 23.0078 33.3634C22.1001 36.4302 22.719 38.7957 25.0844 38.8094C27.4636 38.8369 28.7701 37.2141 29.2789 35.1375C29.8015 33.0746 30.0078 30.4204 27.3123 29.9116ZM28.11 34.1611C27.6424 37.943 25.0707 38.3143 24.4656 37.4342C23.6679 36.2652 24.0255 34.0373 24.4656 32.7446C24.8919 31.4518 25.8133 30.7642 26.886 30.7642C26.8998 30.7505 28.5363 30.7505 28.11 34.1611Z" fill="white"/>
<path id="XMLID_19_" d="M35.1788 29.9253C33.6798 29.6502 32.6483 30.2966 32.6483 30.2966L33.3634 26.0609L31.6994 27.0098L29.8566 38.1768C29.8566 38.1768 31.9882 39.8408 34.4361 38.3143C36.8978 36.7878 37.0766 34.3261 37.1454 32.9783C37.2141 31.6443 36.6778 30.1866 35.1788 29.9253ZM35.3576 35.2062C34.4636 37.7917 33.1434 38.3143 31.2868 37.6817L32.4145 30.9705C32.4145 30.9705 33.721 30.3654 34.6287 30.7504C35.5226 31.1493 36.2515 32.6208 35.3576 35.2062Z" fill="white"/>
<path id="XMLID_16_" d="M42.0687 29.9254C39.9371 29.8016 38.7269 30.6267 38.7269 30.6267L38.9332 31.5344C38.9332 31.5344 40.2947 30.5442 41.8212 30.9431C43.3477 31.3281 42.6601 33.0747 42.6601 33.0747C42.6601 33.0747 38.2318 33.1022 37.3654 35.9352C36.499 38.7682 39.3182 38.9882 40.3222 38.9745C41.3261 38.9745 43.0589 38.3144 43.0589 38.3144C43.0589 38.3144 43.9253 33.9548 44.2004 32.5108C44.5029 31.0668 43.5815 30.0079 42.0687 29.9254ZM41.8487 37.668C41.8487 37.668 41.1473 38.2594 39.6208 37.9155C38.0943 37.5717 38.5894 35.5776 39.0707 35.0688C39.6621 34.4224 40.941 33.7348 42.5088 33.7623L41.8487 37.668Z" fill="white"/>
<path id="XMLID_2_" d="M51.3929 33.5148C51.2417 34.3949 50.5265 38.7545 50.5265 38.7545H49.0688C49.0688 38.7545 49.5089 36.6091 49.8252 34.6012C50.0727 33.0472 50.3065 31.5894 49.9214 31.2319C49.0688 30.4067 47.0609 31.0118 47.0609 31.0118L45.7269 38.7545H44.1317L45.5344 30.5717C46.9372 30.0492 48.3124 29.6366 50.224 30.0492C52.1493 30.448 51.5305 32.6346 51.3929 33.5148Z" fill="white"/>
<path id="XMLID_1_" d="M55.0374 34.1611L57.9116 38.7544H56.3164L53.7722 34.3261L53.002 38.7682H51.503C51.503 38.7682 52.892 31.7269 53.2633 28.6326C53.6346 25.5383 52.3832 24.0255 48.1611 23.3654C44.1179 22.7328 36.7741 25.057 36.169 25.2495C36.7741 25.0157 44.2555 22.1552 48.6287 22.6778C52.9608 23.2004 55.1199 24.7407 54.6798 28.33C54.2535 31.8094 53.8134 33.8448 53.7859 33.9823L57.5403 30.0353H59.0393L55.0374 34.1611Z" fill="white"/>
</g>
</g>
</g>
</svg>
