<svg width="70" height="70" viewBox="0 0 70 70" fill="none" xmlns="http://www.w3.org/2000/svg">
<g id="Equity" clip-path="url(#clip0_1_133)">
<g id="XMLID_18_">
<path id="XMLID_48_" d="M69.5 35C69.5 54.0538 54.0538 69.5 35 69.5C15.9462 69.5 0.5 54.0538 0.5 35C0.5 15.9462 15.9462 0.5 35 0.5C54.0538 0.5 69.5 15.9462 69.5 35Z" fill="white" stroke="#BA0909"/>
<g id="XMLID_19_">
<path id="XMLID_39_" d="M12.9796 33.8735V21.4653H20.8163V24.2953L34.2477 15L59.4995 33.8735H46.9389L34.3783 24.4477L20.5987 33.8735H12.9796Z" fill="#BA0909"/>
<path id="XMLID_34_" d="M18.0082 48.0233H12V37.6178H17.9864V39.4246H14.2204V41.7103H17.747V43.5171H14.2204V46.1947H18.0082V48.0233Z" fill="#221F1F"/>
<path id="XMLID_30_" d="M39.1022 37.6178V44.3444C39.1022 45.1063 38.928 45.7811 38.5797 46.3689C38.2314 46.9566 37.7307 47.392 37.0777 47.6968C36.4246 48.0015 35.6627 48.1539 34.7702 48.1539C33.4205 48.1539 32.3974 47.8056 31.6572 47.1308C30.9171 46.4342 30.547 45.4981 30.547 44.3226V37.6178H32.7457V43.9961C32.7457 44.8015 32.8981 45.3893 33.2246 45.7593C33.5511 46.1294 34.0736 46.3253 34.8355 46.3253C35.5538 46.3253 36.0763 46.1294 36.4028 45.7593C36.7294 45.3893 36.8817 44.7797 36.8817 43.9743V37.6178H39.1022Z" fill="#221F1F"/>
<path id="XMLID_27_" d="M41.0613 48.0233V37.6178H43.26V48.0233H41.0613Z" fill="#221F1F"/>
<path id="XMLID_25_" d="M49.3117 48.0233H47.1131V39.4464H44.2831V37.6178H52.1417V39.4464H49.3117V48.0233Z" fill="#221F1F"/>
<path id="XMLID_23_" d="M57.7145 41.9063L59.8914 37.6178H62.2642L58.803 43.9743V48.0233H56.6043V44.0396L53.1431 37.6178H55.5376L57.7145 41.9063Z" fill="#221F1F"/>
<path id="XMLID_20_" d="M29.9592 48.6764L28.0871 46.3689C28.196 46.2165 28.3048 46.0423 28.3919 45.8682C28.8273 45.041 29.0449 44.0178 29.0449 42.7988C29.0449 41.0791 28.6313 39.7512 27.7824 38.8151C26.9334 37.9008 25.7143 37.4437 24.1034 37.4437C22.4925 37.4437 21.2735 37.9008 20.4245 38.8151C19.5755 39.7294 19.1401 41.0573 19.1401 42.777C19.1401 44.4968 19.5755 45.8682 20.4245 46.8042C21.2735 47.7403 22.5143 48.241 24.1034 48.241H24.2776L26.498 47.7403C26.5198 47.7185 26.5633 47.6968 26.5851 47.675L27.347 48.6764H29.9592ZM24.0817 46.3036C23.2109 46.3036 22.5361 45.9988 22.1007 45.411C21.6653 44.8233 21.4476 43.9525 21.4476 42.777C21.4476 41.6233 21.6653 40.7308 22.1225 40.143C22.5578 39.5552 23.2327 39.2505 24.1034 39.2505C25.8449 39.2505 26.7374 40.426 26.7374 42.777C26.7374 43.4083 26.6721 43.9525 26.5415 44.4315L25.9102 43.6478H23.5374L25.3442 46.0206C24.9959 46.2165 24.5823 46.3036 24.0817 46.3036Z" fill="#221F1F"/>
</g>
</g>
</g>
<defs>
<clipPath id="clip0_1_133">
<rect width="70" height="70" fill="white"/>
</clipPath>
</defs>
</svg>
