<svg width="70" height="70" viewBox="0 0 70 70" fill="none" xmlns="http://www.w3.org/2000/svg">
<g id="GT Bank" clip-path="url(#clip0_1_114)">
<g id="XMLID_34_">
<path id="XMLID_52_" d="M34.9862 69.9724C54.3085 69.9724 69.9724 54.3085 69.9724 34.9862C69.9724 15.6638 54.3085 0 34.9862 0C15.6638 0 0 15.6638 0 34.9862C0 54.3085 15.6638 69.9724 34.9862 69.9724Z" fill="#FF6700"/>
<path id="XMLID_51_" d="M54.785 17.1755H42.0828V29.8777H54.785V17.1755Z" fill="white"/>
<g id="XMLID_35_">
<path id="XMLID_49_" d="M12.1499 42.1656H16.3747V47.9368C15.6844 48.1578 15.0217 48.3234 14.3866 48.4063C13.7515 48.4891 13.0611 48.5443 12.3156 48.5443C10.5759 48.5443 9.22287 48.0197 8.28402 46.998C7.34516 45.9763 6.87573 44.5128 6.87573 42.6351C6.87573 40.785 7.40039 39.3215 8.47731 38.2721C9.55423 37.2228 11.0177 36.6982 12.8678 36.6982C14.0828 36.6982 15.215 36.9191 16.2919 37.3885L15.6292 38.9625C14.6903 38.5207 13.7515 38.3274 12.8126 38.3274C11.57 38.3274 10.6035 38.714 9.88559 39.4871C9.16765 40.2603 8.80867 41.3096 8.80867 42.6627C8.80867 44.071 9.14003 45.1479 9.77514 45.8658C10.4102 46.6114 11.3491 46.9704 12.5641 46.9704C13.1716 46.9704 13.8343 46.8875 14.5246 46.7495V43.7672H12.1499V42.1656Z" fill="white"/>
<path id="XMLID_47_" d="M22.4773 48.4063H20.5996V38.4931H17.2031V36.8915H25.8737V38.4931H22.4773V48.4063Z" fill="white"/>
<path id="XMLID_43_" d="M26.9783 36.8915H30.4023C31.9763 36.8915 33.1361 37.1124 33.854 37.5818C34.572 38.0512 34.9033 38.7692 34.9033 39.7633C34.9033 40.426 34.7376 41.0059 34.3787 41.4477C34.0197 41.8895 33.5227 42.1656 32.8875 42.3037V42.3865C33.6883 42.5522 34.2958 42.8284 34.6824 43.2978C35.069 43.7396 35.2623 44.3471 35.2623 45.1203C35.2623 46.142 34.9033 46.9704 34.1854 47.5503C33.4674 48.1301 32.4457 48.4339 31.1755 48.4339H26.9783V36.8915ZM28.856 41.641H30.6785C31.4793 41.641 32.0315 41.5029 32.3905 41.2544C32.7495 41.0059 32.9428 40.5917 32.9428 39.9842C32.9428 39.4319 32.7495 39.0453 32.3629 38.7968C31.9763 38.5483 31.3412 38.4378 30.5128 38.4378H28.8836V41.641H28.856ZM28.856 43.1873V46.8323H30.8442C31.6449 46.8323 32.2248 46.6942 32.639 46.3905C33.0532 46.0867 33.2465 45.6173 33.2465 44.9546C33.2465 44.3471 33.0532 43.9053 32.639 43.6292C32.2248 43.353 31.6173 43.1873 30.7613 43.1873H28.856Z" fill="white"/>
<path id="XMLID_40_" d="M42.2485 48.4063L41.8895 47.1913H41.8343C41.4201 47.716 40.9783 48.0749 40.5641 48.2682C40.1499 48.4615 39.5976 48.5444 38.9349 48.5444C38.0789 48.5444 37.4162 48.3235 36.9191 47.854C36.4497 47.3846 36.2012 46.7495 36.2012 45.8935C36.2012 44.9822 36.5325 44.3195 37.1953 43.8501C37.858 43.3806 38.8797 43.1321 40.2327 43.1045L41.7239 43.0493V42.5799C41.7239 42.0276 41.5858 41.6134 41.3373 41.3373C41.0887 41.0611 40.6745 40.9231 40.1223 40.9231C39.6805 40.9231 39.2386 40.9783 38.8244 41.1163C38.4102 41.2544 38.0237 41.3925 37.6371 41.5858L37.0296 40.2603C37.499 40.0118 38.0237 39.8185 38.5759 39.7081C39.1282 39.57 39.6805 39.5148 40.1775 39.5148C41.282 39.5148 42.1104 39.7633 42.6903 40.2327C43.2426 40.7298 43.5463 41.4753 43.5463 42.497V48.3787H42.2485V48.4063ZM39.4872 47.1361C40.1499 47.1361 40.7022 46.9428 41.1164 46.5838C41.5306 46.1972 41.7239 45.6726 41.7239 45.0098V44.2643L40.5917 44.3195C39.7081 44.3471 39.073 44.4852 38.6864 44.7613C38.2998 45.0098 38.0789 45.424 38.0789 45.9487C38.0789 46.3353 38.1893 46.639 38.4379 46.8599C38.6864 47.0256 39.0177 47.1361 39.4872 47.1361Z" fill="white"/>
<path id="XMLID_38_" d="M53.1558 48.4063H51.3057V43.0493C51.3057 42.3866 51.1677 41.8619 50.8915 41.5582C50.6154 41.2268 50.2012 41.0611 49.5937 41.0611C48.8205 41.0611 48.2406 41.282 47.8817 41.7515C47.5227 42.2209 47.3294 42.9941 47.3294 44.071V48.4063H45.4793V39.6804H46.9152L47.1637 40.8126H47.2466C47.5227 40.3984 47.8817 40.067 48.3787 39.8461C48.8481 39.6252 49.4004 39.5148 49.9803 39.5148C52.0789 39.5148 53.1282 40.5917 53.1282 42.7179V48.4063H53.1558Z" fill="white"/>
<path id="XMLID_36_" d="M56.8837 43.7949L57.933 42.497L60.5562 39.6805H62.6825L59.1756 43.4359L62.9034 48.4063H60.7495L57.9606 44.5956L56.9389 45.424V48.4063H55.1164V36.1459H56.9389V42.138L56.856 43.8225H56.8837V43.7949Z" fill="white"/>
</g>
</g>
</g>
<defs>
<clipPath id="clip0_1_114">
<rect width="70" height="70" fill="white"/>
</clipPath>
</defs>
</svg>
