<svg width="70" height="70" viewBox="0 0 70 70" fill="none" xmlns="http://www.w3.org/2000/svg">
<g id="I &#38; M bank" clip-path="url(#clip0_1_96)">
<g id="XMLID_27_">
<path id="XMLID_59_" d="M35 70C54.33 70 70 54.33 70 35C70 15.67 54.33 0 35 0C15.67 0 0 15.67 0 35C0 54.33 15.67 70 35 70Z" fill="#2751FF"/>
<path id="XMLID_57_" d="M3.64929 42.2986V29.0284H7.26541V42.2986H3.64929Z" fill="white"/>
<path id="XMLID_52_" d="M6.83411 38.9147C6.83411 38.3507 6.99998 37.8199 7.29856 37.3886C7.59714 36.9574 8.16112 36.4929 8.95733 36.0284C8.5924 35.5972 8.327 35.2986 8.1943 35.0664C8.0616 34.8341 7.96207 34.6351 7.86254 34.3697C7.79619 34.1375 7.72984 33.9052 7.72984 33.6398C7.72984 32.9763 7.96207 32.4455 8.39335 32.0806C8.82463 31.7157 9.42178 31.5166 10.218 31.5166C10.9479 31.5166 11.5118 31.7157 11.9099 32.0806C12.308 32.4455 12.5403 32.9763 12.5403 33.6398C12.5403 34.1043 12.3744 34.5687 12.0758 34.9668C11.7772 35.3649 11.2796 35.763 10.5829 36.1943L13.3033 38.8152C13.5687 38.5498 13.7678 38.218 13.9005 37.8531C14.0332 37.4882 14.1659 37.0901 14.2654 36.6256H15.3934C15.0948 37.8863 14.6303 38.8484 14.0332 39.5119L16.0237 41.4692H14.4976L13.2701 40.2749C12.7393 40.7393 12.2085 41.0711 11.6777 41.3033C11.1469 41.5024 10.5166 41.6019 9.85307 41.6019C8.89098 41.6019 8.16112 41.3697 7.63032 40.9052C7.09951 40.4076 6.83411 39.7441 6.83411 38.9147ZM9.85307 40.5735C10.9147 40.5735 11.8104 40.2417 12.5071 39.545L9.58766 36.7251C9.09003 37.0237 8.75828 37.2891 8.52605 37.4882C8.327 37.6872 8.16112 37.8863 8.06159 38.1185C7.96207 38.3507 7.92889 38.6161 7.92889 38.8815C7.92889 39.4123 8.09477 39.8104 8.4597 40.109C8.82463 40.4408 9.28908 40.5735 9.85307 40.5735ZM8.82463 33.6398C8.82463 33.9384 8.89098 34.237 9.05686 34.5024C9.22273 34.7678 9.48814 35.0995 9.88624 35.4976C10.4502 35.1659 10.8483 34.8673 11.0806 34.5687C11.3128 34.2702 11.4123 33.9716 11.4123 33.6066C11.4123 33.2749 11.3128 32.9763 11.0806 32.7773C10.8483 32.5782 10.5497 32.4455 10.1516 32.4455C9.75354 32.4455 9.42179 32.545 9.18956 32.7773C8.95733 32.9763 8.82463 33.2749 8.82463 33.6398Z" fill="white"/>
<path id="XMLID_49_" d="M20.8673 41.436L18.3128 32.4455H18.2464C18.3791 33.9716 18.4123 35.1659 18.4123 36.0284V41.436H15.4265V28.9621H19.9052L22.526 37.8199H22.5924L25.1469 28.9621H29.6587V41.436H26.5403V35.9621C26.5403 35.6635 26.5403 35.3649 26.5403 35C26.5403 34.6683 26.5734 33.8057 26.6398 32.4455H26.5734L24.0521 41.436H20.8673Z" fill="white"/>
<g id="XMLID_36_">
<path id="XMLID_45_" d="M31.2512 28.9953H34.5687C36.1279 28.9953 37.2559 29.2275 37.9526 29.692C38.6493 30.1564 39.0142 30.8863 39.0142 31.9147C39.0142 32.6114 38.8151 33.1754 38.417 33.6398C38.0189 34.1043 37.455 34.4029 36.7251 34.5356V34.6019C38.5166 34.9005 39.4123 35.8626 39.4123 37.4218C39.4123 38.4834 39.0474 39.3128 38.3507 39.8768C37.654 40.474 36.6256 40.7725 35.3649 40.7725H31.2512V28.9953ZM32.6114 34.0711H34.8673C35.8294 34.0711 36.526 33.9053 36.9573 33.6067C37.3886 33.3081 37.5877 32.7773 37.5877 32.0806C37.5877 31.4171 37.3554 30.9526 36.891 30.6541C36.4265 30.3555 35.6635 30.2228 34.6351 30.2228H32.6114V34.0711ZM32.6114 35.2323V39.6446H35.0663C36.0284 39.6446 36.7251 39.4455 37.2227 39.0806C37.7204 38.7157 37.9526 38.1185 37.9526 37.3555C37.9526 36.6256 37.7204 36.0948 37.2227 35.7299C36.7251 35.3981 35.9952 35.1991 34.9668 35.1991H32.6114V35.2323Z" fill="white"/>
<path id="XMLID_39_" d="M56.2322 32.5782C55.7014 32.0474 54.872 31.8152 53.8104 31.8152C53.2132 31.8152 52.6493 31.9479 52.1516 32.1801C51.654 32.4123 51.2559 32.8768 50.9905 33.2085H50.9241L50.6919 31.8815H49.763V41.1706H50.2938C50.5924 40.5071 51.09 40.4076 51.09 40.2085V36.1612C51.09 35 51.2559 34.1706 51.6872 33.673C52.1185 33.1754 52.782 32.91 53.7109 32.91C54.4075 32.91 54.9384 33.0758 55.2701 33.4408C55.6019 33.8057 55.7677 34.3365 55.7677 35.0664V41.1375H57.0948V35.0332C57.0616 33.9052 56.763 33.0758 56.2322 32.5782Z" fill="white"/>
<path id="XMLID_37_" d="M60.4455 36.2607C60.6777 35.9289 61.0427 35.4976 61.5071 34.9668L64.3602 31.9479H65.9526L62.3697 35.7299L66.218 40.8057H64.5924L61.4739 36.6256L60.4787 37.4882V40.8057H59.1517V28.2322H60.4787V34.9005C60.4787 35.1991 60.4455 35.6635 60.4123 36.2607H60.4455Z" fill="white"/>
</g>
<path id="XMLID_32_" d="M46.1138 37.2559C46.1138 38.0853 45.9147 38.7156 45.4502 39.1801C44.9858 39.6445 44.3555 39.8768 43.4929 39.8768C42.9621 39.8768 42.564 39.7441 42.2654 39.5118C41.9668 39.2464 41.8341 38.8815 41.8341 38.417C41.8341 37.7867 42.0664 37.3554 42.5308 37.0569C42.9953 36.7583 43.7251 36.5924 44.7867 36.5592L46.0806 36.4929V37.2559H46.1138ZM49.763 40.2417C49.763 40.2417 49.6967 40.2417 49.6635 40.2417C49.6635 40.2417 49.6303 40.2417 49.5972 40.2417C47.109 40.673 47.4076 37.455 47.4076 37.455V34.7346C47.4076 33.7061 47.2085 32.9431 46.6777 32.4787C46.1801 32.0142 45.4171 31.782 44.3555 31.782C43.8247 31.782 43.327 31.8483 42.7962 31.981C42.2654 32.1137 41.801 32.3128 41.3697 32.545L41.801 33.5734C42.7299 33.109 43.5593 32.9099 44.2891 32.9099C44.9526 32.9099 45.3839 33.0758 45.6493 33.4076C45.9479 33.7393 46.0474 34.237 46.0474 34.9336V35.4976L44.5877 35.5308C41.7346 35.6303 40.3412 36.5592 40.3412 38.3507C40.3412 39.1801 40.6067 39.8436 41.1043 40.2749C41.6019 40.7393 42.2986 40.9384 43.1612 40.9384C43.8247 40.9384 44.3555 40.8057 44.8199 40.6066C45.2512 40.4076 45.7157 40.109 46.1469 39.4455H46.2133V39.545V39.5782V39.545C46.2133 39.545 46.1801 40.2417 47.2085 40.7393C48.5687 41.3697 49.5308 41.1706 50.1943 40.7393H50.2938C50.5261 40.5734 50.9905 40.4076 50.9905 40.2085V38.1848C50.4265 39.0142 50.1943 40.0758 49.763 40.2417Z" fill="white"/>
</g>
</g>
<defs>
<clipPath id="clip0_1_96">
<rect width="70" height="70" fill="white"/>
</clipPath>
</defs>
</svg>
