<svg width="70" height="70" viewBox="0 0 70 70" fill="none" xmlns="http://www.w3.org/2000/svg">
<g id="KBC Bank" clip-path="url(#clip0_1_59)">
<g id="XMLID_18_">
<path id="XMLID_26_" d="M69.8769 35.1231C69.8769 54.3669 54.2438 70 35 70C34.3024 70 33.6459 70 32.9894 69.9179C31.2251 69.8359 29.5017 69.5897 27.8605 69.2204C27.245 69.0973 26.6295 68.9332 26.014 68.769C25.891 68.728 25.7679 68.687 25.6448 68.6459C25.1934 68.5228 24.7831 68.3997 24.3318 68.2356C15.7972 65.4865 8.69869 59.5369 4.47243 51.7819C1.76434 46.8171 0.205139 41.1137 0.205139 35.041C0.205139 29.5017 1.51815 24.2497 3.81592 19.6131C6.97536 13.2122 12.0223 7.9191 18.2591 4.47245C23.2239 1.72333 28.9683 0.164124 35.082 0.164124C40.4572 0.164124 45.5451 1.39507 50.0586 3.52872C53.4232 5.12895 56.5416 7.2626 59.2087 9.84759C65.7737 16.2896 69.8769 25.1934 69.8769 35.1231Z" fill="#82BA29"/>
<g id="XMLID_21_">
<path id="XMLID_61_" d="M59.1266 9.92966C56.4595 7.34466 53.3822 5.21102 49.9765 3.61078C47.2684 2.4619 36.1078 -4.43142 18.177 4.55451C11.9402 8.00117 6.89329 13.2532 3.73385 19.6542C0.246163 25.5217 -0.656533 35 0.41029 39.6366C2.13362 37.1747 10.2169 29.4197 13.0891 28.558C14.1969 28.2298 15.8382 28.4349 15.8792 29.5838C15.8792 30.2814 15.2227 30.8148 14.6072 31.1841C13.4994 31.8406 12.3915 32.5381 11.3247 33.1946C11.0375 33.3587 10.7092 33.6049 10.7092 33.9332C10.7092 34.1383 10.9554 34.3435 11.1196 34.3435C10.0527 35.041 8.94487 35.7796 7.87805 36.4771C10.0938 37.1336 12.5967 36.6413 14.4021 35.2462C12.3915 37.0926 10.1348 38.7339 7.71392 40.0059C6.89329 40.4162 6.07266 40.8675 5.45718 41.5651C4.88274 42.2626 4.63655 43.3294 5.12893 44.109C7.38567 41.524 10.5451 39.7186 13.9097 39.1032C14.6893 40.8675 13.2532 42.837 11.8581 44.2321C11.3247 44.7655 10.7092 45.34 9.92963 45.381C9.15003 45.422 8.37043 44.5604 8.78075 43.9039C6.93432 45.8324 5.04687 47.966 4.55449 50.592C4.47242 51.0023 4.43139 51.4537 4.43139 51.864C8.65765 59.619 15.7561 65.5686 24.2907 68.3177C24.5779 67.9484 24.9062 67.5791 25.2755 67.3329C25.3986 67.7843 25.4806 68.2767 25.6037 68.728C25.6448 68.9332 25.6858 69.1383 25.7268 69.3435C25.8089 69.1794 25.8909 69.0152 25.973 68.8511C26.5475 67.8253 27.3271 66.9226 28.3118 66.3072C28.1477 67.2919 27.9836 68.3177 27.8194 69.3025C29.5017 69.6717 31.2251 69.8769 32.9484 70C34.4666 67.9484 35.3282 65.4455 35.2872 62.9015L35.5334 63.0656C35.7385 62.7374 35.7385 62.286 35.4924 61.9988C34.2204 63.1477 31.7995 62.0809 31.7585 60.3576C31.0199 60.8089 30.2403 61.2603 29.5017 61.7116C29.7479 60.6037 30.0351 59.4549 30.2813 58.347C29.5838 58.8804 28.8863 59.3728 28.1887 59.9062C28.9683 56.2954 31.4302 52.9308 34.9589 51.7819C36.7643 51.2075 38.8159 51.3716 40.5392 52.1512C40.3341 51.9871 40.17 51.7819 39.9648 51.6178C38.4056 50.0176 37.4619 47.6788 38.0363 45.5041C38.7749 42.7139 41.6061 41.2368 44.3962 40.211C42.6319 40.4162 40.4982 39.3083 38.7339 40.0059C38.1184 40.252 37.585 40.7034 36.9285 40.8265C35.4924 41.1137 34.1793 39.7186 32.7022 39.7186C31.5943 39.7186 30.1172 40.4162 29.5838 39.3904C28.9273 38.0774 31.6354 37.2157 31.6354 35.7386C31.6354 35.3693 31.4713 35.041 31.2661 34.7128C30.5686 33.3998 29.871 32.1278 29.1735 30.8148C28.9683 30.4045 28.7221 29.9941 28.3528 29.789C27.9015 29.5428 27.3271 29.6248 26.7936 29.6248C24.7831 29.6659 22.7725 28.6811 21.6237 27.0399C23.0598 25.7268 25.3575 26.2603 27.0809 27.163C28.8042 28.0656 30.4455 29.3376 32.415 29.3376C32.0457 28.7632 31.6764 28.1477 31.3482 27.5733C32.5791 27.0399 34.2614 27.5733 34.8358 28.8453C34.8769 27.6143 36.272 26.7526 37.4619 26.9988C38.6518 27.245 39.5545 28.3118 39.9238 29.5018C39.8007 27.163 39.7186 24.8241 39.5955 22.4853C39.5545 21.7468 39.5955 20.8851 40.1289 20.3517C40.7854 19.7773 41.8523 19.9824 42.6729 20.3517C44.7245 21.2544 46.5709 22.6905 47.9249 24.4959C46.1606 24.578 44.3962 24.8241 42.7139 25.1934C42.1395 25.3165 41.565 25.4807 41.1958 25.891C40.17 26.9578 41.1137 28.6811 42.0574 29.789C43.3704 27.6143 47.0633 28.6811 48.9507 26.9988C50.4279 25.6858 50.1817 23.347 49.6483 21.4596C49.0328 19.408 48.1301 17.4384 47.0222 15.6331C48.6635 17.0692 50.3048 18.5463 51.946 19.9824C52.4384 20.3927 52.9718 20.8441 53.5873 21.0492C54.49 21.2954 55.4748 20.9261 56.2954 20.4338C58.2649 19.2028 59.619 17.1102 59.9472 14.8124C60.2755 13.1301 59.9472 11.4068 59.1266 9.92966ZM22.8956 48.7456C23.2239 47.4736 24.0445 46.4068 25.0703 45.5862C26.0961 44.7655 27.286 44.2321 28.517 43.7808C29.3786 43.4525 30.2813 43.1243 31.184 43.1243C32.1278 43.0832 33.0715 43.3705 33.687 44.068C34.3024 44.7655 34.4666 45.7503 34.5486 46.694C34.5897 47.1454 34.6307 47.6377 34.5076 48.0481C34.2204 49.0328 33.2766 49.6483 32.456 50.2638C30.6916 51.4947 29.1324 52.9719 27.7374 54.6131C27.4912 53.7515 28.3528 53.0129 28.8863 52.2743C28.9683 52.1512 29.0504 52.0281 29.0914 51.905C29.1324 51.5768 28.7632 51.3306 28.4349 51.3306C28.1067 51.3306 27.8194 51.5358 27.5322 51.6999C28.1067 50.8382 28.6811 49.9766 29.2555 49.1149C27.5322 49.5662 25.973 50.592 24.9062 51.9871C24.8241 52.1102 24.701 52.2333 24.5779 52.2743C24.4138 52.2743 24.2497 52.1512 24.1676 52.0281C23.347 51.1254 22.8546 49.9355 22.7315 48.7046L22.8956 48.7456ZM32.7022 21.3775C32.497 23.388 32.0047 25.3576 31.2251 27.204C30.6096 26.0141 30.0351 24.7831 29.5428 23.5522C28.9273 23.2649 28.7221 24.3728 28.1887 24.8652C27.7374 25.2755 27.0398 25.1114 26.4654 24.9883C24.619 24.619 22.6494 24.9062 21.0082 25.7679C23.8394 22.8546 27.1219 19.8593 31.184 19.6542C31.5943 19.6542 32.0457 19.6542 32.3739 19.9414C32.7432 20.2696 32.7432 20.8441 32.7022 21.3775Z" fill="#1A2B4A"/>
</g>
<path id="XMLID_20_" d="M23.9214 12.7609C23.9214 12.7609 22.6905 11.7351 19.4079 10.7093C16.1254 9.68348 14.279 10.7093 14.279 10.7093C14.279 10.7093 15.9203 7.22158 19.1207 7.83705C22.3212 8.45253 23.7573 7.54983 25.1934 10.2579C26.6295 12.966 25.1934 13.7866 25.1934 13.9918C25.1934 14.197 23.9214 12.7609 23.9214 12.7609Z" fill="#82BA29"/>
<path id="XMLID_19_" d="M30.0352 10.8734C28.8453 10.5041 30.6507 8.86284 26.8757 7.01641C23.1008 5.16999 22.6495 3.73388 22.6495 3.73388C22.6495 3.73388 24.7831 3.52872 25.7679 3.73388C26.7526 3.93904 26.9168 3.52872 28.5991 5.16999C30.2814 6.81126 30.8968 8.65768 30.8968 8.65768L30.0352 10.8734Z" fill="#82BA29"/>
</g>
</g>
<defs>
<clipPath id="clip0_1_59">
<rect width="69.8769" height="70" fill="white"/>
</clipPath>
</defs>
</svg>
