<svg width="80" height="80" viewBox="0 0 80 80" fill="none" xmlns="http://www.w3.org/2000/svg">
<g id="MTN MObile money">
<path id="Vector" d="M39.9991 80C17.9078 80 -0.000854492 62.0914 -0.000854492 40C-0.000854492 17.9086 17.9078 0 39.9991 0C62.0905 0 79.9991 17.9086 79.9991 40C79.9991 62.0914 62.0905 80 39.9991 80Z" fill="#F7CD00"/>
<g id="Group">
<g id="XMLID_68_">
<path id="XMLID_70_" d="M36.088 29.5867L30.4759 19.3482L29.9512 18.442L25.8018 20.5882L23.115 17.663L18.0116 21.4626V22.6868L10.9051 22.5755L8.82246 28.2353L15.1818 59.8251H13.5601L16.7239 61.2719L17.0736 60.3975L29.5379 56.1526L25.8336 34.8013C25.8336 34.8013 30.3805 31.8283 34.7684 31.3514C36.8193 31.1129 36.5172 30.8744 36.5172 30.8744L36.088 29.5867Z" fill="white"/>
<path id="XMLID_69_" d="M17.0578 62.0986L17.6938 60.9221L30.6032 56.6773L26.5809 34.4038C27.8687 33.6566 31.4458 32.8935 34.848 31.876C36.3424 31.4309 36.8194 31.4786 37.4394 31.1765L30.3488 17.2019L25.9609 19.4436L22.7653 16.4547L18.0117 21.4468L17.2645 22.1304L9.80824 21.6057L7.63018 27.6789L14.0213 57.9333H11.4458L17.0578 62.0986ZM28.4728 55.4054L16.3265 59.4913L16.2311 59.4277L9.56977 27.8379L11.0801 23.5294L18.0117 23.6407V21.9714L22.5745 18.8712L25.6429 21.7329L29.5857 19.6821L29.6652 19.8251L35.3408 30.3339C35.166 30.3657 34.9434 30.3975 34.6572 30.4134C30.0944 30.9221 25.4998 33.8633 25.309 33.9746L24.7844 34.3084L28.4728 55.4054Z" fill="white"/>
</g>
<path id="XMLID_67_" d="M16.9943 60.636L30.0626 56.3593L23.9577 22.8776L23.5761 22.8617C20.6191 22.7663 10.9052 22.4484 10.0149 22.7822C9.04513 23.1638 7.15324 25.8029 6.77168 26.3116L6.66039 26.4706L12.1771 58.2989L16.9943 60.636ZM29.0292 55.7234L17.0896 59.6503L13.0515 57.6948L7.67788 26.725C8.53639 25.5326 9.88774 23.8792 10.3806 23.6725C11.096 23.45 18.4728 23.6248 23.2105 23.7838L29.0292 55.7234Z" fill="black"/>
<path id="XMLID_66_" d="M21.1915 58.7759C21.0484 58.7759 16.7876 59.9364 16.5015 58.5374C16.2153 57.1384 10.4442 26.9794 10.1581 25.5644C9.87191 24.1495 11.1279 23.1797 12.4951 23.1479L10.2058 23.2274L7.1851 26.5978L12.6382 58.0128L17.0579 60.159L21.1915 58.7759Z" fill="black"/>
<path id="XMLID_65_" d="M16.7081 24.9285L11.7796 25.2782L14.848 41.9873C14.8321 41.9714 14.8321 28.3943 16.7081 24.9285Z" fill="black"/>
<path id="XMLID_64_" d="M22.193 45.6439C22.1612 45.4372 22.2884 45.2624 22.4791 45.2147L25.7065 44.3403L25.945 46.407C25.945 46.4229 25.9291 46.4547 25.9132 46.4547L22.3838 47.4563L22.193 45.6439Z" fill="black"/>
<path id="XMLID_63_" d="M16.7082 47.2019C16.6764 46.9952 16.8035 46.8204 16.9943 46.7727L20.2217 45.8983L20.4601 47.965C20.4601 47.9809 20.4442 48.0127 20.4283 48.0127L16.8989 49.0143L16.7082 47.2019Z" fill="black"/>
<path id="XMLID_62_" d="M17.2805 50.5883C17.2487 50.3816 17.3759 50.2067 17.5667 50.159L20.794 49.2846L21.0325 51.3514C21.0325 51.3673 21.0166 51.3991 21.0007 51.3991L17.4713 52.4007L17.2805 50.5883Z" fill="black"/>
<path id="XMLID_61_" d="M17.9642 54.1972C17.9324 53.9905 18.0596 53.8156 18.2503 53.7679L21.4777 52.8935L21.7162 54.9603C21.7162 54.9762 21.7003 55.008 21.6844 55.008L18.1549 56.0096L17.9642 54.1972Z" fill="black"/>
<path id="XMLID_60_" d="M23.3536 52.6232C23.3218 52.4166 23.449 52.2417 23.6398 52.194L26.8671 51.3196L27.1056 53.3864C27.1056 53.4023 27.0897 53.434 27.0738 53.434L23.5444 54.4356L23.3536 52.6232Z" fill="black"/>
<path id="XMLID_59_" d="M22.7972 49.0144C22.7654 48.8077 22.8926 48.6328 23.0834 48.5851L26.3107 47.7107L26.5492 49.7775C26.5492 49.7934 26.5333 49.8252 26.5174 49.8252L22.988 50.8268L22.7972 49.0144Z" fill="black"/>
<path id="XMLID_58_" d="M16.104 43.6407C16.104 43.6407 16.8353 38.4579 24.6731 35.3419C24.6731 35.3419 24.4347 40.5883 24.8957 41.6217L16.104 43.6407Z" fill="#F93508"/>
<path id="XMLID_57_" d="M15.6271 41.6375C15.6271 41.6375 17.8687 34.0064 36.104 30.2862L29.8083 19.5549C29.7765 19.5549 14.6891 24.0223 15.6271 41.6375Z" fill="#417BAF"/>
<path id="XMLID_56_" d="M25.2296 20.0954C24.9434 20.1431 17.2487 25.9936 16.104 31.3196C16.104 31.3196 16.9466 21.6534 23.131 18.0286L25.2296 20.0954Z" fill="#417BAF"/>
<g id="XMLID_51_">
<path id="XMLID_55_" d="M42.7641 37.4051C42.8317 37.5323 42.8824 37.6754 42.95 37.8185C43.0176 37.6754 43.0682 37.5323 43.1358 37.4051C43.2034 37.262 43.2541 37.1349 43.3385 37.0077L46.0416 32.27C46.0754 32.2064 46.1261 32.1746 46.143 32.1269C46.1768 32.0792 46.2274 32.0633 46.2612 32.0474C46.3119 32.0315 46.3457 32.0156 46.4133 32.0156C46.4808 32.0156 46.5315 32.0156 46.616 32.0156H47.8831V40.5848H46.3964V35.0522C46.3964 34.9568 46.3964 34.8296 46.4133 34.7183C46.4133 34.607 46.4302 34.4799 46.4471 34.3368L43.6764 39.1857C43.6089 39.297 43.5413 39.3924 43.423 39.4401C43.3217 39.5037 43.2034 39.5196 43.0682 39.5196H42.8317C42.6966 39.5196 42.5783 39.4878 42.4769 39.4401C42.3756 39.3924 42.2911 39.297 42.2235 39.1857L39.436 34.3209C39.4529 34.4481 39.4698 34.5752 39.4698 34.7024C39.4698 34.8296 39.4867 34.9409 39.4867 35.0522V40.5848H38V32.0156H39.2671C39.3515 32.0156 39.4022 32.0156 39.4698 32.0156C39.5374 32.0156 39.5712 32.0315 39.6218 32.0474C39.6725 32.0633 39.7063 32.0951 39.7401 32.1269C39.7908 32.1587 39.8246 32.2064 39.8415 32.27L42.5445 37.0236C42.629 37.1349 42.6966 37.2779 42.7641 37.4051Z" fill="#13507A"/>
<path id="XMLID_53_" d="M55.6712 32V33.3196H52.9344V40.5692H51.2281V33.3196H48.4912V32H55.6712Z" fill="#13507A"/>
<path id="XMLID_52_" d="M57.4114 32.0159C57.4621 32.0159 57.4959 32.0318 57.5466 32.0477C57.5972 32.0636 57.631 32.0954 57.6648 32.1272C57.7155 32.159 57.7493 32.2067 57.7831 32.2544L62.5641 37.9777C62.5472 37.8347 62.5303 37.7075 62.5303 37.5803C62.5303 37.4531 62.5134 37.3259 62.5134 37.1987V32H64.0001V40.5374H63.1216C62.9864 40.5374 62.8682 40.5215 62.7837 40.4738C62.6992 40.4261 62.6148 40.3625 62.5303 40.2512L57.7662 34.5914C57.7831 34.7186 57.8 34.8299 57.8 34.973C57.8 35.1161 57.8169 35.2114 57.8169 35.3227V40.5851H56.3302V32.0159H57.2256C57.2931 32 57.3607 32.0159 57.4114 32.0159Z" fill="#13507A"/>
</g>
<g id="XMLID_39_">
<path id="XMLID_50_" d="M41.3788 46.1653C41.4295 46.2448 41.4633 46.3561 41.497 46.4356C41.5477 46.3402 41.5815 46.2448 41.6153 46.1653C41.666 46.0858 41.6998 45.9905 41.7505 45.911L43.5074 42.7631C43.5243 42.7154 43.5581 42.6836 43.575 42.6836C43.6088 42.6518 43.6257 42.6359 43.6595 42.62C43.6933 42.6041 43.7271 42.6041 43.744 42.6041C43.7609 42.6041 43.8284 42.6041 43.8622 42.6041H44.7069V48.248H43.7271V44.6073C43.7271 44.5278 43.7271 44.4642 43.7271 44.3847C43.7271 44.3052 43.744 44.2257 43.744 44.1463L41.9363 47.3418C41.8856 47.4213 41.8518 47.469 41.7674 47.5167C41.6998 47.5644 41.6322 47.5803 41.5308 47.5803H41.3788C41.2943 47.5803 41.2098 47.5644 41.1423 47.5167C41.0747 47.469 41.024 47.4213 40.9733 47.3418L39.1319 44.1304C39.1488 44.2099 39.1488 44.3052 39.1657 44.3688C39.1657 44.4483 39.1657 44.5278 39.1657 44.6073V48.248H38.1858V42.6041H39.0305C39.0812 42.6041 39.115 42.6041 39.1488 42.6041C39.1826 42.6041 39.2163 42.62 39.2332 42.62C39.267 42.6359 39.3008 42.6518 39.3177 42.6836C39.3515 42.7154 39.3684 42.7472 39.4022 42.7631L41.193 45.911C41.2774 45.9905 41.345 46.0858 41.3788 46.1653Z" fill="#C11B00"/>
<path id="XMLID_49_" d="M47.427 44.1781C47.748 44.1781 48.0352 44.2258 48.3055 44.3212C48.5589 44.4166 48.7785 44.5597 48.9643 44.7186C49.1502 44.8935 49.2853 45.1002 49.3867 45.3705C49.4712 45.6248 49.5387 45.911 49.5387 46.2131C49.5387 46.5151 49.488 46.8172 49.3867 47.0716C49.2853 47.326 49.1333 47.5485 48.9643 47.7234C48.7785 47.8983 48.5589 48.0414 48.3055 48.1368C48.0521 48.2322 47.748 48.2799 47.427 48.2799C47.106 48.2799 46.8188 48.2322 46.5485 48.1368C46.2782 48.0414 46.0754 47.8983 45.8727 47.7234C45.6869 47.5485 45.5517 47.326 45.4504 47.0716C45.349 46.8172 45.2983 46.531 45.2983 46.2131C45.2983 45.8951 45.349 45.6089 45.4504 45.3705C45.5517 45.1161 45.7038 44.8935 45.8727 44.7186C46.0585 44.5438 46.2782 44.4007 46.5485 44.3212C46.8188 44.2258 47.106 44.1781 47.427 44.1781ZM47.427 47.5644C47.7817 47.5644 48.0352 47.4531 48.2041 47.2306C48.373 46.9921 48.4575 46.69 48.4575 46.2449C48.4575 45.8156 48.373 45.4818 48.2041 45.2433C48.0352 45.0048 47.7817 44.8935 47.427 44.8935C47.0722 44.8935 46.8019 45.0048 46.6329 45.2433C46.464 45.4818 46.3795 45.7997 46.3795 46.229C46.3795 46.6582 46.464 46.9921 46.6329 47.2147C46.8019 47.4531 47.0891 47.5644 47.427 47.5644Z" fill="#C11B00"/>
<path id="XMLID_48_" d="M50.0623 48.2481V42.4452H51.0928V44.7345C51.2618 44.5597 51.4645 44.4325 51.6672 44.3371C51.8868 44.2417 52.1234 44.194 52.4106 44.194C52.6471 44.194 52.8498 44.2417 53.0525 44.3212C53.2384 44.4007 53.4073 44.5438 53.5425 44.7027C53.6776 44.8617 53.7959 45.0843 53.8634 45.3387C53.9479 45.593 53.9817 45.8792 53.9817 46.1972C53.9817 46.4992 53.931 46.7695 53.8634 47.0398C53.779 47.2942 53.6438 47.5167 53.4918 47.7075C53.3397 47.8983 53.137 48.0414 52.9174 48.1368C52.6978 48.2322 52.4443 48.2957 52.174 48.2957C52.0389 48.2957 51.9206 48.2798 51.8193 48.2481C51.7179 48.2163 51.6165 48.1845 51.5321 48.1527C51.4476 48.105 51.3631 48.0573 51.2787 47.9937C51.1942 47.9301 51.1266 47.8665 51.059 47.7711L51.0083 48.0414C50.9915 48.1209 50.9577 48.1527 50.9239 48.1845C50.8732 48.2163 50.8394 48.2322 50.7549 48.2322L50.0623 48.2481ZM52.0558 44.9253C51.8362 44.9253 51.6503 44.973 51.4983 45.0525C51.3462 45.132 51.2111 45.2592 51.0759 45.4182V47.2147C51.1942 47.3419 51.3293 47.4531 51.4645 47.5008C51.5996 47.5485 51.7517 47.5803 51.9037 47.5803C52.0558 47.5803 52.1909 47.5485 52.3092 47.5008C52.4275 47.4531 52.5457 47.3577 52.6302 47.2624C52.7147 47.1511 52.7822 47.008 52.8329 46.849C52.8836 46.6741 52.9174 46.4674 52.9174 46.2449C52.9174 46.0064 52.9005 45.8156 52.8498 45.6566C52.7991 45.4977 52.7653 45.3705 52.6809 45.2751C52.5964 45.1797 52.5119 45.1002 52.4106 45.0525C52.3261 44.9571 52.1909 44.9253 52.0558 44.9253Z" fill="#C11B00"/>
<path id="XMLID_47_" d="M55.7557 43.0652C55.7557 43.1447 55.7388 43.2242 55.6881 43.3037C55.6543 43.3832 55.6036 43.4309 55.5529 43.4945C55.4853 43.5581 55.4178 43.5899 55.3333 43.6217C55.2488 43.6535 55.1644 43.6694 55.0799 43.6694C54.9954 43.6694 54.9109 43.6535 54.8265 43.6217C54.742 43.5899 54.6744 43.5422 54.6237 43.4945C54.5562 43.4309 54.5224 43.3832 54.4886 43.3037C54.4548 43.2242 54.4379 43.1606 54.4379 43.0652C54.4379 42.9857 54.4548 42.8903 54.4886 42.8267C54.5224 42.7632 54.5731 42.6837 54.6237 42.6201C54.6744 42.5565 54.742 42.5247 54.8265 42.4929C54.9109 42.4611 54.9954 42.4452 55.0799 42.4452C55.1644 42.4452 55.2657 42.4611 55.3333 42.4929C55.4178 42.5247 55.4853 42.5724 55.5529 42.6201C55.6205 42.6678 55.6543 42.7314 55.6881 42.8267C55.7388 42.9062 55.7557 42.9857 55.7557 43.0652ZM55.6036 44.2417V48.2481H54.5731V44.2417H55.6036Z" fill="#C11B00"/>
<path id="XMLID_46_" d="M57.5633 42.4452V48.2481H56.5327V42.4452H57.5633Z" fill="#C11B00"/>
<path id="XMLID_45_" d="M60.2157 44.1781C60.4691 44.1781 60.7394 44.2258 60.9591 44.2894C61.1956 44.3689 61.3645 44.4961 61.5335 44.655C61.7024 44.814 61.8207 45.0048 61.922 45.2274C62.0065 45.4659 62.0572 45.7043 62.0572 46.0064C62.0572 46.0859 62.0572 46.1336 62.0403 46.1972C62.0234 46.2449 62.0234 46.2767 61.9896 46.3085C61.9727 46.3403 61.9389 46.3562 61.9051 46.3721C61.8714 46.388 61.8207 46.388 61.7869 46.388H59.1514C59.1852 46.8013 59.3035 47.1034 59.5062 47.2942C59.7089 47.4849 59.9792 47.5803 60.3171 47.5803C60.486 47.5803 60.6212 47.5644 60.7394 47.5167C60.8577 47.469 60.976 47.4372 61.0604 47.4054C61.1449 47.3578 61.2294 47.326 61.297 47.2942C61.3645 47.2465 61.4321 47.2306 61.4997 47.2306C61.5504 47.2306 61.5842 47.2465 61.601 47.2624C61.6179 47.2783 61.6686 47.3101 61.6855 47.3419L61.9727 47.6916C61.8714 47.8188 61.7193 47.9301 61.5842 48.0096C61.449 48.0891 61.297 48.1686 61.1449 48.2163C60.9929 48.2798 60.8408 48.2957 60.6719 48.3116C60.5198 48.3275 60.3678 48.3434 60.2157 48.3434C59.9285 48.3434 59.6413 48.2958 59.3879 48.2004C59.1345 48.1209 58.9149 47.9619 58.7291 47.8029C58.5432 47.6121 58.3912 47.4054 58.2898 47.1193C58.1884 46.8649 58.1209 46.5469 58.1209 46.1972C58.1209 45.9269 58.1715 45.6566 58.256 45.4182C58.3405 45.1797 58.4925 44.973 58.6615 44.7822C58.8304 44.6074 59.05 44.4643 59.3035 44.3689C59.5907 44.2417 59.8947 44.1781 60.2157 44.1781ZM60.2326 44.8617C59.9285 44.8617 59.692 44.9412 59.5231 45.1002C59.3541 45.2592 59.2528 45.4818 59.2021 45.7838H61.128C61.128 45.6566 61.1111 45.5454 61.0604 45.4182C61.0266 45.3069 60.976 45.2115 60.8915 45.132C60.807 45.0525 60.7226 44.9889 60.6212 44.9253C60.5198 44.8935 60.3847 44.8617 60.2326 44.8617Z" fill="#C11B00"/>
<path id="XMLID_44_" d="M41.3788 53.9715C41.4294 54.0509 41.4632 54.1622 41.497 54.2417C41.5477 54.1463 41.5815 54.0509 41.6153 53.9715C41.666 53.892 41.6997 53.7966 41.7504 53.7171L43.5243 50.5851C43.5412 50.5374 43.575 50.5056 43.5919 50.5056C43.6257 50.4738 43.6426 50.4579 43.6764 50.442C43.7101 50.4261 43.7439 50.4261 43.7608 50.4261C43.7777 50.4261 43.8453 50.4261 43.8791 50.4261H44.7238V56.07H43.7439V52.4134C43.7439 52.3339 43.7439 52.2703 43.7439 52.1908C43.7439 52.1114 43.7608 52.0319 43.7608 51.9524L41.9701 55.1638C41.9194 55.2433 41.8856 55.291 41.8011 55.3387C41.7335 55.3864 41.666 55.4023 41.5646 55.4023H41.4125C41.3281 55.4023 41.2436 55.3864 41.176 55.3387C41.1085 55.291 41.0578 55.2433 41.0071 55.1638L39.1656 51.9524C39.1825 52.0319 39.1825 52.1273 39.1994 52.1908C39.1994 52.2703 39.1994 52.3498 39.1994 52.4293V56.07H38.2196V50.4261H39.0643C39.115 50.4261 39.1487 50.4261 39.1825 50.4261C39.2163 50.4261 39.2501 50.442 39.267 50.442C39.3008 50.4579 39.3346 50.4738 39.3515 50.5056C39.3853 50.5374 39.4022 50.5692 39.4359 50.5851L41.2267 53.733C41.2774 53.8125 41.345 53.892 41.3788 53.9715Z" fill="#C11B00"/>
<path id="XMLID_43_" d="M47.427 51.9841C47.748 51.9841 48.0352 52.0318 48.3055 52.1272C48.5589 52.2226 48.7785 52.3657 48.9643 52.5247C49.1502 52.6996 49.2853 52.9062 49.3867 53.1765C49.4712 53.4309 49.5387 53.717 49.5387 54.0191C49.5387 54.3212 49.488 54.6232 49.3867 54.8776C49.2853 55.132 49.1333 55.3546 48.9643 55.5294C48.7785 55.7043 48.5589 55.8474 48.3055 55.9428C48.0521 56.0382 47.748 56.0859 47.427 56.0859C47.106 56.0859 46.8188 56.0382 46.5485 55.9428C46.2782 55.8474 46.0754 55.7043 45.8727 55.5294C45.6869 55.3546 45.5517 55.132 45.4504 54.8776C45.349 54.6232 45.2983 54.3371 45.2983 54.0191C45.2983 53.7011 45.349 53.415 45.4504 53.1765C45.5517 52.9221 45.7038 52.6996 45.8727 52.5247C46.0585 52.3498 46.2782 52.2067 46.5485 52.1272C46.8188 52.0477 47.106 51.9841 47.427 51.9841ZM47.427 55.3705C47.7817 55.3705 48.0352 55.2592 48.2041 55.0366C48.373 54.7981 48.4575 54.4961 48.4575 54.0509C48.4575 53.6058 48.373 53.2878 48.2041 53.0493C48.0352 52.8108 47.7817 52.6996 47.427 52.6996C47.0722 52.6996 46.8019 52.8108 46.6329 53.0493C46.464 53.2878 46.3795 53.6058 46.3795 54.035C46.3795 54.4643 46.464 54.7981 46.6329 55.0207C46.8019 55.2592 47.0891 55.3705 47.427 55.3705Z" fill="#C11B00"/>
<path id="XMLID_42_" d="M50.0455 56.07V52.0636H50.6706C50.8057 52.0636 50.8902 52.1272 50.924 52.2385L51.0085 52.5565C51.0929 52.477 51.1943 52.3975 51.2788 52.318C51.3632 52.2385 51.4815 52.1908 51.5829 52.1431C51.6842 52.0954 51.8025 52.0636 51.9208 52.0318C52.039 52 52.1742 51.9841 52.3262 51.9841C52.5627 51.9841 52.7655 52.0318 52.9344 52.0954C53.1202 52.1749 53.2723 52.2703 53.3736 52.4134C53.4919 52.5406 53.5933 52.6996 53.6439 52.8903C53.7115 53.0811 53.7284 53.2719 53.7284 53.5104V56.0541H52.6979V53.5104C52.6979 53.2719 52.6303 53.0811 52.512 52.9539C52.3938 52.8267 52.208 52.7472 51.9714 52.7472C51.7856 52.7472 51.6336 52.7949 51.4646 52.8585C51.3126 52.938 51.1605 53.0334 51.0254 53.1606V56.0541L50.0455 56.07Z" fill="#C11B00"/>
<path id="XMLID_41_" d="M56.2625 51.9841C56.5159 51.9841 56.7862 52.0318 57.0058 52.0954C57.2424 52.1749 57.4113 52.3021 57.5802 52.4611C57.7492 52.6201 57.8674 52.8108 57.9688 53.0334C58.0533 53.2719 58.104 53.5104 58.104 53.8124C58.104 53.8919 58.104 53.9396 58.0871 54.0032C58.0702 54.0509 58.0702 54.0827 58.0364 54.1145C58.0026 54.1463 57.9857 54.1622 57.9519 54.1781C57.9181 54.194 57.8674 54.194 57.8337 54.194H55.1982C55.232 54.6073 55.3502 54.9094 55.553 55.1002C55.7557 55.291 56.026 55.3864 56.3639 55.3864C56.5328 55.3864 56.668 55.3705 56.7862 55.3228C56.9045 55.2751 57.0227 55.2433 57.1072 55.2115C57.1917 55.1638 57.2762 55.132 57.3437 55.1002C57.4113 55.0525 57.4789 55.0366 57.5465 55.0366C57.5971 55.0366 57.6309 55.0525 57.6478 55.0684C57.6816 55.0843 57.7154 55.1161 57.7323 55.1479L58.0195 55.4976C57.9181 55.6248 57.7661 55.7361 57.6309 55.8156C57.4958 55.8951 57.3437 55.9746 57.1917 56.0223C57.0396 56.0859 56.8876 56.1018 56.7186 56.1177C56.5666 56.1336 56.4146 56.1495 56.2625 56.1495C55.9753 56.1495 55.6881 56.1018 55.4347 56.0064C55.1813 55.9269 54.9617 55.7679 54.7758 55.6089C54.59 55.4182 54.4379 55.2115 54.3366 54.9253C54.2352 54.6709 54.1676 54.353 54.1676 54.0032C54.1676 53.7329 54.2183 53.4627 54.3028 53.2242C54.3873 52.9857 54.5393 52.779 54.7083 52.5883C54.8772 52.4134 55.0968 52.2703 55.3502 52.1749C55.6374 52.0477 55.9415 51.9841 56.2625 51.9841ZM56.2794 52.6837C55.9753 52.6837 55.7388 52.7631 55.5698 52.9221C55.4009 53.0811 55.2995 53.3037 55.2489 53.6058H57.1748C57.1748 53.4786 57.1579 53.3673 57.1072 53.2401C57.0734 53.1288 57.0227 53.0334 56.9383 52.9539C56.8538 52.8744 56.7693 52.8108 56.668 52.7472C56.5666 52.7154 56.4314 52.6837 56.2794 52.6837Z" fill="#C11B00"/>
<path id="XMLID_40_" d="M60.0299 57.1669C59.9961 57.2464 59.9454 57.2782 59.9117 57.3259C59.861 57.3577 59.7934 57.3895 59.6751 57.3895H58.9149L59.7089 55.7838L57.9857 52.0795H58.8811C58.9656 52.0795 59.0332 52.0954 59.0838 52.1431C59.1345 52.1908 59.1683 52.2225 59.1683 52.2702L60.0637 54.3529C60.0975 54.4324 60.1313 54.496 60.1482 54.5755C60.182 54.655 60.1989 54.7186 60.2158 54.7981C60.2326 54.7186 60.2664 54.655 60.3002 54.5755C60.334 54.496 60.3678 54.4324 60.3847 54.3529L61.2463 52.2702C61.2632 52.2067 61.3139 52.1749 61.3477 52.1431C61.3814 52.1113 61.449 52.0795 61.5166 52.0795H62.3444L60.0299 57.1669Z" fill="#C11B00"/>
</g>
<path id="XMLID_38_" d="M16.7081 62.3053L21.5094 61.5421H73.6557V33.8792L61.8592 24.5469L32.8925 24.5151L34.228 26.2798L61.2391 26.3911L71.9227 34.7536V59.8092L21.1755 59.841L16.8512 61.0334L12.5905 58.4738L6.93069 26.8204L10.3806 22.6232H18.0118V21.4626L9.80828 21.6375L5.67474 26.4706L11.7638 59.4913L16.7081 62.3053Z" fill="white"/>
<path id="XMLID_37_" d="M26.5809 34.4038L24.2439 35.5167C24.2439 35.5167 23.7828 34.3243 23.91 34.2449C24.0372 34.1654 27.5825 32.6868 27.5825 32.6868L26.5809 34.4038Z" fill="white"/>
<path id="XMLID_36_" d="M24.5142 22.2735L23.449 21.4626C23.449 21.4626 21.0802 23.6089 20.3966 24.3561L20.9848 25.3577C20.9689 25.3736 23.0516 23.2115 24.5142 22.2735Z" fill="white"/>
</g>
</g>
</svg>
