<svg width="81" height="81" viewBox="0 0 81 81" fill="none" xmlns="http://www.w3.org/2000/svg">
<g id="ncba bank" clip-path="url(#clip0_1_596)">
<g id="XMLID_15_">
<path id="XMLID_27_" d="M40.1428 80.188C62.2342 80.188 80.1428 62.2794 80.1428 40.188C80.1428 18.0966 62.2342 0.187988 40.1428 0.187988C18.0514 0.187988 0.142822 18.0966 0.142822 40.188C0.142822 62.2794 18.0514 80.188 40.1428 80.188Z" fill="#312B2B"/>
<path id="XMLID_26_" d="M20.6937 17.3856L18.1548 19.6371L20.8853 23.4215H15.2326L13.556 26.7748H28.1668L20.6937 17.3856Z" fill="white"/>
<path id="XMLID_25_" d="M25.2925 17.3856L28.1668 15.2778L31.9991 19.9724L36.2147 15.2778L38.9452 17.6251L32.1428 25.7209L25.2925 17.3856Z" fill="white"/>
<path id="XMLID_24_" d="M43.544 16.9545L32.1428 31.0862H36.3105L40.5261 26.7748L40.3823 31.0862H43.4961L43.544 16.9545Z" fill="white"/>
<path id="XMLID_23_" d="M47.3284 19.5892V34.9185L56.3344 30.3676L54.5141 27.2538L50.5859 29.6491L50.9213 23.182L47.3284 19.5892Z" fill="white"/>
<path id="XMLID_22_" d="M50.6817 34.9185V37.7928H57.3883L50.6817 43.2059V48.3317L67.1129 34.9185H50.6817Z" fill="white"/>
<path id="XMLID_21_" d="M55.4722 49.2898V53.6012L50.6817 55.9964V64.1401L47.3284 66.5353V54.5593L55.4722 49.2898Z" fill="white"/>
<path id="XMLID_20_" d="M47.3284 36.8347V49.7688L43.4961 48.3317V43.5413L40.5261 46.5592L37.8434 44.4994L47.3284 36.8347Z" fill="white"/>
<path id="XMLID_19_" d="M43.544 34.9185L33.4362 43.3018L31.1847 40.9065L34.2985 37.9365L26.1548 37.7928L28.6458 34.9185H43.544Z" fill="white"/>
<path id="XMLID_18_" d="M43.4961 56.4754L34.8255 61.4095L36.55 64.6191L40.4781 62.4634L40.3344 70.1281L43.4961 67.9724V56.4754Z" fill="white"/>
<path id="XMLID_17_" d="M43.544 52.0682L33.9153 57.9125L32.1428 54.9904L36.9332 52.0682L32.1428 49.2898L34.059 46.3197L43.544 52.0682Z" fill="white"/>
<path id="XMLID_16_" d="M28.1189 30.1281L20.8374 39.182L17.8674 36.8826L20.8853 33.4814H15.2326L13.556 30.1281H28.1189Z" fill="white"/>
</g>
</g>
<defs>
<clipPath id="clip0_1_596">
<rect width="80" height="80" fill="white" transform="translate(0.142822 0.187988)"/>
</clipPath>
</defs>
</svg>
