<svg width="80" height="80" viewBox="0 0 80 80" fill="none" xmlns="http://www.w3.org/2000/svg">
<g id="UBC">
<path id="XMLID_152_" d="M40 80C62.0914 80 80 62.0914 80 40C80 17.9086 62.0914 0 40 0C17.9086 0 0 17.9086 0 40C0 62.0914 17.9086 80 40 80Z" fill="#141F56"/>
<g id="XMLID_143_">
<path id="XMLID_150_" d="M6.23523 29.608H16.9189V30.1914H16.4084C15.6062 30.1914 15.0593 30.2643 14.7676 30.4466C14.4759 30.6289 14.2571 30.8477 14.1113 31.1394C14.0019 31.4311 13.9289 32.1604 13.9289 33.3637V43.5004C13.9289 45.36 14.0748 46.5998 14.3665 47.1832C14.6582 47.7666 15.0958 48.2771 15.7521 48.6782C16.4084 49.0793 17.2106 49.2616 18.1951 49.2616C19.3255 49.2616 20.2735 49.0063 21.0757 48.4958C21.8779 47.9854 22.4613 47.2926 22.8624 46.4174C23.2635 45.5423 23.4458 43.9744 23.4458 41.7867V33.3272C23.4458 32.4156 23.3364 31.7228 23.1541 31.3582C22.9718 30.9571 22.7165 30.7019 22.4248 30.5195C21.9508 30.3008 21.3309 30.1549 20.4923 30.1549V29.608H27.6755V30.1914H27.238C26.6546 30.1914 26.1805 30.3008 25.7794 30.556C25.3783 30.7748 25.1231 31.1394 24.9408 31.6134C24.7949 31.9416 24.7585 32.525 24.7585 33.3637V41.2397C24.7585 43.6827 24.6126 45.433 24.2845 46.5269C23.9563 47.6207 23.1906 48.6052 21.9508 49.5168C20.7111 50.4284 18.9973 50.8659 16.846 50.8659C15.0593 50.8659 13.6737 50.6107 12.6892 50.1367C11.3401 49.4803 10.4285 48.6417 9.84508 47.6207C9.29813 46.5998 9.00642 45.2142 9.00642 43.5004V33.3637C9.00642 32.1604 8.9335 31.4311 8.82411 31.1394C8.67826 30.8477 8.45948 30.6289 8.13131 30.4466C7.80314 30.2643 7.21973 30.1914 6.34462 30.1914V29.608H6.23523Z" fill="white"/>
<path id="XMLID_146_" d="M42.042 39.3436C44.011 39.8176 45.3966 40.3646 46.1988 41.0209C47.3291 41.9325 47.9126 43.1358 47.9126 44.6308C47.9126 46.1987 47.2927 47.4749 46.0165 48.4958C44.485 49.7356 42.2243 50.3555 39.3073 50.3555H28.7694V49.7721C29.7175 49.7721 30.3738 49.6991 30.702 49.5168C31.0301 49.3345 31.2854 49.1157 31.4312 48.824C31.5771 48.5323 31.65 47.8395 31.65 46.7092V33.2543C31.65 32.1239 31.5771 31.4311 31.4312 31.1394C31.2854 30.8477 31.0666 30.6289 30.702 30.4466C30.3374 30.2643 29.7175 30.1914 28.7694 30.1914V29.608H38.6874C41.0575 29.608 42.7348 29.8268 43.7193 30.2278C44.7038 30.6289 45.4695 31.2853 46.0529 32.1239C46.6364 32.9626 46.8916 33.8741 46.8916 34.8222C46.8916 35.8067 46.527 36.7183 45.7977 37.484C45.1414 38.2862 43.8652 38.9061 42.042 39.3436ZM36.4632 40.1458V46.7821V47.5478C36.4632 48.0948 36.609 48.4958 36.9007 48.7875C37.1924 49.0793 37.5935 49.2251 38.1405 49.2251C38.9426 49.2251 39.7084 49.0428 40.4012 48.6782C41.094 48.3135 41.6044 47.8031 41.9691 47.1103C42.3337 46.4175 42.516 45.6517 42.516 44.8131C42.516 43.8286 42.2972 42.9899 41.8597 42.2242C41.4221 41.4585 40.8023 40.9115 40.0001 40.6198C39.1979 40.2552 38.0311 40.1093 36.4632 40.1458ZM36.4632 38.9425C37.9217 38.9425 38.9791 38.7967 39.6719 38.4685C40.3647 38.1403 40.8752 37.6663 41.2398 37.0829C41.6044 36.4995 41.7868 35.7338 41.7868 34.8222C41.7868 33.9106 41.6044 33.1449 41.2398 32.5615C40.8752 31.9781 40.3647 31.5405 39.6719 31.2124C39.0156 30.9207 37.9217 30.7748 36.4267 30.7748V38.9425H36.4632Z" fill="white"/>
<path id="XMLID_144_" d="M69.8633 29.1339V36.3171H69.2799C68.8423 34.4575 68.0037 32.999 66.764 32.0145C65.5242 31.03 64.1386 30.5195 62.6072 30.5195C61.3309 30.5195 60.1277 30.8841 59.0338 31.6499C57.9399 32.3791 57.1742 33.3636 56.6637 34.5669C56.0073 36.0983 55.7156 37.8121 55.7156 39.7082C55.7156 41.5678 55.9344 43.2451 56.4084 44.7766C56.8825 46.308 57.6117 47.4384 58.5962 48.2406C59.5807 49.0063 60.8934 49.4074 62.4613 49.4074C63.774 49.4074 64.9773 49.1157 66.0347 48.5687C67.1286 47.9853 68.2589 47.0008 69.4622 45.6152V47.4019C68.2954 48.6052 67.0921 49.4803 65.8159 50.0273C64.5397 50.5742 63.0812 50.8294 61.4039 50.8294C59.1796 50.8294 57.2471 50.3919 55.4969 49.5168C53.7831 48.6416 52.4704 47.3654 51.5224 45.6881C50.5743 44.0108 50.1368 42.2606 50.1368 40.401C50.1368 38.432 50.6473 36.5359 51.7047 34.7857C52.7257 32.999 54.1477 31.6499 55.8979 30.6654C57.6482 29.6809 59.5078 29.2068 61.5133 29.2068C62.9718 29.2068 64.5032 29.535 66.1441 30.1549C67.0921 30.5195 67.6755 30.7018 67.9308 30.7018C68.2589 30.7018 68.5506 30.5924 68.7694 30.3372C69.0247 30.0819 69.1705 29.7173 69.2434 29.2068H69.8633V29.1339Z" fill="white"/>
</g>
</g>
</svg>
