<svg width="80" height="80" viewBox="0 0 80 80" fill="none" xmlns="http://www.w3.org/2000/svg">
<g id="unguka bank">
<circle id="Ellipse 123" cx="40.2221" cy="39.821" r="38.6975" fill="white" stroke="#1194D3" stroke-width="2"/>
<g id="unguka bank_2">
<g id="XMLID_76_">
<path id="XMLID_97_" d="M15.7095 32.1573C15.7095 32.1573 11.323 35.2659 11.6684 39.4106C12.0138 43.5554 17.0911 46.3186 17.0911 46.3186C17.0911 46.3186 15.4677 40.7922 15.7095 32.1573Z" fill="#1194D3"/>
<path id="XMLID_90_" d="M22.3757 29.1869C22.3757 29.1869 22.0303 37.3729 22.3757 41.3795C22.7211 45.3861 25.4843 46.1114 27.6603 45.6279C29.8363 45.1789 31.356 44.1427 31.7014 40.3433C32.0468 36.5439 31.7014 26.7692 31.7014 26.7692L22.3757 29.1869Z" fill="#1194D3"/>
<path id="XMLID_83_" d="M38.1949 26.8036C38.1949 26.8036 38.5057 36.4402 38.1603 41.5176C37.8149 46.5949 34.0156 50.4979 31.9086 50.4979C31.9086 50.4979 39.9564 51.0506 43.4104 50.4979V26.8727L38.1949 26.8036Z" fill="#1194D3"/>
<path id="XMLID_82_" d="M49.8693 31.3629L49.662 36.2676C49.662 36.2676 52.8742 36.233 55.1884 36.3021C57.5026 36.3712 57.6062 34.0916 57.6062 33.4008C57.6062 32.33 56.3282 31.3629 55.292 31.3629C54.2558 31.3629 49.8693 31.3629 49.8693 31.3629Z" fill="#1194D3"/>
<path id="XMLID_81_" d="M49.8693 40.6886L49.662 45.5932C49.662 45.5932 52.8742 45.5587 55.1884 45.6278C57.5026 45.6969 57.6062 43.4172 57.6062 42.7264C57.6062 41.6557 56.3282 40.6886 55.292 40.6886C54.2558 40.6886 49.8693 40.6886 49.8693 40.6886Z" fill="#1194D3"/>
<path id="XMLID_80_" d="M64.0651 32.9863C64.0651 32.9863 63.7888 37.0965 60.2657 37.7528C60.2657 37.7528 65.0322 39.5143 64.9286 43.6245C64.9286 43.6245 67.3119 41.7594 67.2773 38.1327C67.2428 34.506 64.0651 32.9863 64.0651 32.9863Z" fill="#1194D3"/>
<path id="XMLID_77_" d="M39.9909 57.0951C30.8379 57.0951 22.203 55.2299 15.7095 51.845C9.11239 48.4256 5.45117 43.7973 5.45117 38.8926C5.45117 33.988 9.07785 29.3597 15.7095 25.9402C22.203 22.5553 30.8379 20.6902 39.9909 20.6902C49.144 20.6902 57.7789 22.5553 64.2724 25.9402C70.8695 29.3597 74.5307 33.988 74.5307 38.8926C74.5307 43.7973 70.904 48.4256 64.2724 51.845C57.7789 55.2299 49.144 57.0951 39.9909 57.0951ZM39.9909 21.7264C21.5122 21.7264 6.48736 29.4287 6.48736 38.8926C6.48736 48.3565 21.5122 56.0589 39.9909 56.0589C58.4697 56.0589 73.4945 48.3565 73.4945 38.8926C73.4945 29.4287 58.4697 21.7264 39.9909 21.7264Z" fill="#1194D3"/>
</g>
</g>
</g>
</svg>
