<svg width="71" height="71" viewBox="0 0 71 71" fill="none" xmlns="http://www.w3.org/2000/svg">
<g id="Urwego Bank Rwanda" clip-path="url(#clip0_1_610)">
<g id="XMLID_15_">
<path id="XMLID_20_" d="M35.3735 70.3018C54.7035 70.3018 70.3735 54.6317 70.3735 35.3018C70.3735 15.9718 54.7035 0.301758 35.3735 0.301758C16.0436 0.301758 0.373535 15.9718 0.373535 35.3018C0.373535 54.6317 16.0436 70.3018 35.3735 70.3018Z" fill="#15C1FF"/>
<path id="XMLID_19_" d="M35.6513 16.4129H28.9846C29.8735 15.3018 30.4291 14.524 30.4291 13.3018C30.4291 11.3018 28.818 9.57953 26.818 9.57953C24.818 9.57953 23.1513 11.3573 23.1513 13.3573C23.1513 14.524 23.7069 15.3018 24.5958 16.4129H17.8735V17.524H25.5402L19.818 30.3018H23.2069L24.2069 35.8573H27.5402L29.0402 30.3018H32.3735L28.1513 17.524H35.6513V16.4129Z" fill="white"/>
<path id="XMLID_18_" d="M52.8735 16.4129H46.4846C47.3735 15.3018 47.9291 14.524 47.9291 13.3018C47.9291 11.3018 46.318 9.57953 44.318 9.57953C42.318 9.57953 40.7069 11.3573 40.7069 13.3573C40.7069 14.524 41.2624 15.3018 42.1513 16.4129H35.0957V17.524H43.0958L37.3735 30.3018H40.7624L41.7624 35.8573H45.0958L46.5957 30.3018H49.9291L45.7069 17.524H52.8735V16.4129Z" fill="white"/>
<path id="XMLID_17_" d="M35.6513 44.7462H28.9846C29.8735 43.6351 30.4291 42.8573 30.4291 41.6351C30.4291 39.6351 28.818 37.9129 26.818 37.9129C24.818 37.9129 23.1513 39.6907 23.1513 41.6907C23.1513 42.8573 23.7069 43.6351 24.5958 44.7462H17.8735V45.8573H25.5402L19.818 58.6351H23.2069L24.2069 64.1907H27.5402L29.0402 58.6351H32.3735L28.1513 45.8573H35.6513V44.7462Z" fill="white"/>
<path id="XMLID_16_" d="M52.8735 44.7462H46.4846C47.3735 43.6351 47.9291 42.8573 47.9291 41.6351C47.9291 39.6351 46.318 37.9129 44.318 37.9129C42.318 37.9129 40.7069 39.6907 40.7069 41.6907C40.7069 42.8573 41.2624 43.6351 42.1513 44.7462H35.0957V45.8573H43.0958L37.3735 58.6351H40.7624L41.7624 64.1907H45.0958L46.5957 58.6351H49.9291L45.7069 45.8573H52.8735V44.7462Z" fill="white"/>
</g>
</g>
<defs>
<clipPath id="clip0_1_610">
<rect width="70" height="70" fill="white" transform="translate(0.373535 0.301758)"/>
</clipPath>
</defs>
</svg>
