<svg width="80" height="80" viewBox="0 0 80 80" fill="none" xmlns="http://www.w3.org/2000/svg">
<g id="vision fund">
<g id="Group 300">
<g id="Group 299">
<path id="XMLID_140_" d="M60.0543 48.181V55.0588C59.2217 55.7466 58.4615 56.2895 57.3394 56.2895C55.9276 56.2895 54.1177 55.095 54.1177 51.6923C54.1177 48 56.9774 45.3212 60.0543 48.181ZM56.4344 57.5565C57.9186 57.5565 59.1493 57.0497 60.2353 56.1809L60.3077 56.2172V57.3031H63.2036V39.8552H60.0543V46.8054C59.1855 46.1538 57.8462 45.7194 56.4706 45.7194C54.7331 45.7194 50.6064 46.7692 50.6064 51.8009C50.6064 55.5294 53.9005 57.5565 56.4344 57.5565Z" fill="black"/>
<path id="XMLID_139_" d="M48.905 57.3756V51.1131C48.905 46.8778 45.6471 45.7919 43.7647 45.7919C42.3892 45.7919 41.2308 46.2987 40.1086 47.0951L40.0362 47.0588V45.9729H37.1403V57.3756H40.2896V48.181C41.2308 47.3484 42.1358 47.0226 42.9322 47.0226C44.5973 47.0226 45.7557 48.6154 45.7557 50.3892V57.3756H48.905Z" fill="black"/>
<path id="XMLID_138_" d="M23.1674 45.9728V52.2353C23.1674 56.4706 26.4253 57.5566 28.3077 57.5566C29.6832 57.5566 30.8416 57.0498 31.9638 56.2534L32.0362 56.2896V57.3756H34.9321V45.9728H31.7828V55.1674C30.8416 56 29.9366 56.3258 29.1403 56.3258C27.4751 56.3258 26.3167 54.733 26.3167 52.9593V45.9728H23.1674Z" fill="black"/>
<g id="XMLID_136_">
<path id="XMLID_137_" d="M23.1675 43.4389H16.362V48.181H21.7195V49.5566H16.362V57.3756H13.2489V42.0634H23.1675V43.4389Z" fill="black"/>
</g>
<path id="XMLID_135_" d="M45.8642 20.9955C54.8416 20.9955 63.0226 22.9502 69.285 26.1358C63.8552 21.2489 55.3846 18.0995 45.8642 18.0995C36.3439 18.0995 27.8733 21.2489 22.4434 26.1358C28.6697 22.9502 36.8868 20.9955 45.8642 20.9955Z" fill="#FF6B00"/>
<path id="XMLID_128_" d="M25.5928 28.1629H22.4435V39.5657H25.5928V28.1629ZM27.5475 31.2761C27.2579 35.6199 33.5928 34.5702 33.4118 37.2127C33.3032 38.2625 32.3982 38.6245 31.457 38.6245C29.8643 38.5159 28.9231 37.6109 28.0543 36.5973L27.1131 38.6969C28.3801 39.4208 29.7919 39.7828 30.9864 39.8914C33.7014 40.0724 36.0181 38.8779 36.1629 36.2715C36.4525 32.181 29.8643 32.6878 29.9729 30.5883C30.0453 29.6833 31.0588 29.2127 32.1086 29.2851C33.1946 29.3937 34.0633 29.9729 35.0045 30.8417L35.8371 28.9593C34.6426 28.4525 33.5204 28.1991 32.543 28.1267C29.6471 27.9095 27.6561 29.4299 27.5475 31.2761ZM13.8281 39.5657H15.1674L21.8281 24.2534H20.0905L15.457 35.0046L10.8959 24.2534H7.09503L13.8281 39.5657ZM69.6471 39.5657V33.3032C69.6471 29.0679 66.3891 27.9819 64.5068 27.9819C63.1312 27.9819 61.9729 28.4887 60.8507 29.2851L60.7783 29.2489V28.1629H57.8824V39.5657H61.0317V30.3711C61.9729 29.5385 62.8778 29.2127 63.6742 29.2127C65.3394 29.2127 66.4977 30.8055 66.4977 32.5792V39.5657C66.4615 39.5657 69.6471 39.5657 69.6471 39.5657ZM43.4389 33.8462C43.4389 37.0317 45.7919 39.6742 49.629 39.6742C53.4299 39.6742 55.819 37.0317 55.819 33.8462C55.819 30.6607 53.4661 28.0181 49.629 28.0181C45.7919 28.0543 43.4389 30.6969 43.4389 33.8462ZM52.4887 33.8462C52.4887 36.4887 51.6199 38.5883 49.629 38.5883C47.638 38.5883 46.7692 36.4887 46.7692 33.8462C46.7692 31.2036 47.638 29.1041 49.629 29.1041C51.6199 29.1041 52.4887 31.2398 52.4887 33.8462Z" fill="black"/>
<path id="XMLID_127_" d="M41.3756 28.1628H38.2263V39.5656H41.3756V28.1628Z" fill="black"/>
<path id="XMLID_126_" d="M39.8914 23.0226C38.9503 23.0226 38.2263 23.7466 38.2263 24.6877C38.2263 25.6289 38.9503 26.3529 39.8914 26.3529C40.8326 26.3529 41.5566 25.6289 41.5566 24.6877C41.5566 23.7466 40.8326 23.0226 39.8914 23.0226Z" fill="black"/>
<path id="XMLID_59_" d="M40 80C17.9186 80 0 62.0452 0 40C0 17.9186 17.9548 0 40 0C62.0814 0 80 17.9548 80 40C80.0362 62.0452 62.0814 80 40 80ZM40 1.41177C18.7511 1.41177 1.44796 18.7149 1.44796 39.9638C1.44796 61.2127 18.7511 78.5158 40 78.5158C61.2489 78.5158 78.552 61.2127 78.552 39.9638C78.552 18.7149 61.2851 1.41177 40 1.41177Z" fill="#FF8710"/>
</g>
</g>
</g>
</svg>
