<svg width="70" height="70" viewBox="0 0 70 70" fill="none" xmlns="http://www.w3.org/2000/svg">
<g id="Zigama css" clip-path="url(#clip0_1_125)">
<g id="XMLID_15_">
<path id="XMLID_25_" d="M34.9862 69.9724C54.3085 69.9724 69.9724 54.3085 69.9724 34.9862C69.9724 15.6638 54.3085 0 34.9862 0C15.6638 0 0 15.6638 0 34.9862C0 54.3085 15.6638 69.9724 34.9862 69.9724Z" fill="#42BA09"/>
<path id="XMLID_19_" d="M23.499 18.7495H60.9152L29.7396 44.4024L62.1578 43.1045L56.1105 51.6095H6.93097L50.5878 21.1519L23.499 18.7495Z" fill="white"/>
<path id="XMLID_18_" d="M59.5621 22.0631L34.5444 43.0493H37.6647L62.8757 22.0631H59.5621Z" fill="#1B4902"/>
<path id="XMLID_17_" d="M62.1578 45.5345L56.8008 53.5424H11.9842L9.85797 55.1992H58.927L65.0848 45.5345H62.1578Z" fill="#1B4902"/>
<path id="XMLID_16_" d="M45.7554 22.0631L28.2761 20.3235L43.9329 23.5266L45.7554 22.0631Z" fill="#1B4902"/>
</g>
</g>
<defs>
<clipPath id="clip0_1_125">
<rect width="70" height="70" fill="white"/>
</clipPath>
</defs>
</svg>
