<svg xmlns="http://www.w3.org/2000/svg" xmlns:xlink="http://www.w3.org/1999/xlink" width="2423" height="968" viewBox="0 0 2423 968">
  <defs>
    <clipPath id="clip-path">
      <rect id="Rectangle_942" data-name="Rectangle 942" width="2825" height="1253" transform="translate(0.092 -0.309)" fill="#00a1de"/>
    </clipPath>
    <clipPath id="clip-Logo_Transparent">
      <rect width="2423" height="968"/>
    </clipPath>
  </defs>
  <g id="Logo_Transparent" clip-path="url(#clip-Logo_Transparent)">
    <g id="_7" data-name="7" transform="translate(-159.092 -141.691)" clip-path="url(#clip-path)">
      <path id="Path_36" data-name="Path 36" d="M0,0H2824V1252.046H0Z" transform="translate(0.459)" fill="none"/>
      <g id="Group_34" data-name="Group 34" transform="translate(210.22 299.509)">
        <g id="Group_12" data-name="Group 12" transform="translate(762.927 27.622)">
          <g id="Group_8" data-name="Group 8">
            <g id="Group_7" data-name="Group 7">
              <path id="Path_7" data-name="Path 7" d="M934.553,924.791H795.942V343.615h427.4V459.851H934.553V596.843h227.178V713.079H934.553Z" transform="translate(-795.942 -335.314)"/>
              <path id="Path_8" data-name="Path 8" d="M1076.523,508.163V931.586H941.759V620.241H884V508.163ZM941.759,342.11h134.764V458.341H941.759Z" transform="translate(-433.501 -342.11)"/>
              <path id="Path_9" data-name="Path 9" d="M1212.585,369.2h150.168L1239.541,589.218,1366.6,809.237H1216.437L1147.126,676.42,1077.8,809.258H927.652L1054.717,589.24,931.479,369.2h150.169l65.458,132.844Z" transform="translate(-253.832 -219.782)"/>
              <path id="Path_10" data-name="Path 10" d="M1131.221,822.311q-52.372,0-83.937-34.042t-31.576-90.495V660.411q0-56.458,31.576-90.495t83.937-34.048h157.868v-31.88a27.534,27.534,0,0,0-7.7-19.911,25.64,25.64,0,0,0-19.251-7.987h-66.615a550.943,550.943,0,0,0-67.383,3.894,532.225,532.225,0,0,1-73.93,5.179V382.689a527.989,527.989,0,0,1,86.249-7.016,421.991,421.991,0,0,1,82.4-7.513h85.478q52.366,0,83.941,33.86t31.571,89.993V814h-119.36l-7.7-41.516a280.294,280.294,0,0,1-43.122,24.914A404.3,404.3,0,0,1,1209,814.419a165.808,165.808,0,0,1-50.821,7.892Zm65.484-116.242a202.756,202.756,0,0,0,30.8-2.488q16.177-2.482,30.031-5.808a294.845,294.845,0,0,0,31.576-8.307V639.656H1177.449a25.343,25.343,0,0,0-19.25,8.3,29.581,29.581,0,0,0-7.7,20.755v8.273a29.584,29.584,0,0,0,7.7,20.759,25.344,25.344,0,0,0,19.253,8.3Z" transform="translate(108.601 -224.528)"/>
            </g>
          </g>
        </g>
        <g id="Group_3" data-name="Group 3">
          <path id="Path_1" data-name="Path 1" d="M782.578,648.9c159.686,0,289.138,129.378,289.138,288.974s-129.451,288.974-289.138,288.974S493.44,1097.474,493.44,937.878c.183-159.521,129.528-288.792,289.138-288.974m0-37.534h0c-180.437,0-326.71,146.19-326.71,326.524h0c0,180.334,146.273,326.524,326.71,326.524h0c180.436,0,326.71-146.191,326.71-326.525h0c0-180.335-146.274-326.525-326.71-326.525Z" transform="translate(-455.868 -611.37)"/>
          <g id="Group_2" data-name="Group 2" transform="translate(179.218 164.31)">
            <g id="Group_1" data-name="Group 1" transform="translate(0 149.268)">
              <path id="Path_3" data-name="Path 3" d="M879.481,786.859a32.683,32.683,0,0,1-7.235,20.646l-43.673,53.308-22.219,27.131c-22.266,27.192-54.29,42.767-87.933,42.769H595.439A127.142,127.142,0,0,1,548.5,921.7c-8.923-3.568-14.84-12.752-14.828-23.013V796.434c-.093-10.9,6.578-20.522,16.3-23.513a104.511,104.511,0,0,1,29.243-4.193c3.162,0,6.277.149,9.439.447a104.031,104.031,0,0,1,14.57,2.366c2.66.645,5.27,1.335,7.884,2.173a107.865,107.865,0,0,1,25.1,11.87,20.931,20.931,0,0,0,11.353,3.193l69.254-.044a29.724,29.724,0,0,1,21.861,9.729,25.488,25.488,0,0,1,2.471,3.067,35.2,35.2,0,0,1-2.493,44,29.774,29.774,0,0,1-21.843,9.745H628.81c-6.82,0-12.35,5.961-12.35,13.315s5.53,13.315,12.35,13.315H716.8c30.654-.11,55.479-26.873,55.58-59.922a14.972,14.972,0,0,0-.369-3.259l18.417-17.192,34.046-31.77,7.055-6.569a27.335,27.335,0,0,1,31.017-4.777c10.315,5.092,16.924,16.207,16.909,28.439Z" transform="translate(-533.668 -755.579)"/>
            </g>
            <ellipse id="Ellipse_1" data-name="Ellipse 1" cx="69.234" cy="74.643" rx="69.234" ry="74.643" transform="translate(83.294 0)"/>
          </g>
        </g>
      </g>
    </g>
  </g>
</svg>
