<svg width="18" height="21" viewBox="0 0 18 21" fill="none" xmlns="http://www.w3.org/2000/svg">
<path d="M8.91675 13C11.4558 13 13.5261 11.0859 13.8386 8.625H3.95581C4.26831 11.0859 6.33862 13 8.91675 13ZM3.60425 7.375H14.2292C14.3855 7.375 14.5417 7.25781 14.5417 7.0625V5.8125C14.5417 5.65625 14.3855 5.5 14.2292 5.5H13.9167C13.9167 3.74219 12.8621 2.17969 11.2214 1.47656L10.1667 3.625V1.125C10.1667 0.8125 9.85425 0.5 9.54175 0.5H8.29175C7.94019 0.5 7.66675 0.8125 7.66675 1.125V3.625L6.573 1.47656C4.93237 2.17969 3.91675 3.74219 3.91675 5.5H3.60425C3.40894 5.5 3.29175 5.65625 3.29175 5.8125V7.0625C3.29175 7.25781 3.40894 7.375 3.60425 7.375ZM12.4324 14.25H5.36206C2.47144 14.25 0.166748 16.5938 0.166748 19.4844C0.166748 20.0703 0.596436 20.5 1.18237 20.5H16.6121C17.198 20.5 17.6277 20.0703 17.6277 19.4844C17.6667 16.5938 15.323 14.25 12.4324 14.25Z" fill="#0291C8"/>
</svg>
