<svg width="15" height="21" viewBox="0 0 15 21" fill="none" xmlns="http://www.w3.org/2000/svg">
<path d="M14.2578 5.42188C14.7266 5.89062 15 6.51562 15 7.17969V18C15 19.4062 13.8672 20.5 12.5 20.5H2.5C1.09375 20.5 0 19.4062 0 18V3C0 1.63281 1.09375 0.5 2.5 0.5H8.32031C8.98438 0.5 9.60938 0.773438 10.0781 1.24219L14.2578 5.42188ZM8.75 1.86719V6.125C8.75 6.47656 9.02344 6.75 9.375 6.75H13.6328C13.5938 6.59375 13.5156 6.4375 13.3594 6.28125L9.21875 2.14062C9.0625 1.98438 8.90625 1.90625 8.75 1.86719ZM13.75 18V8H9.375C8.32031 8 7.5 7.17969 7.5 6.125V1.75H2.5C1.79688 1.75 1.25 2.33594 1.25 3V18C1.25 18.7031 1.79688 19.25 2.5 19.25H12.5C13.1641 19.25 13.75 18.7031 13.75 18ZM3.125 4.25C2.77344 4.25 2.5 3.97656 2.5 3.625C2.5 3.3125 2.77344 3 3.125 3H5.625C5.9375 3 6.25 3.3125 6.25 3.625C6.25 3.97656 5.9375 4.25 5.625 4.25H3.125ZM6.25 6.125C6.25 6.47656 5.9375 6.75 5.625 6.75H3.125C2.77344 6.75 2.5 6.47656 2.5 6.125C2.5 5.8125 2.77344 5.5 3.125 5.5H5.625C5.9375 5.5 6.25 5.8125 6.25 6.125ZM7.89062 11.7891C7.03125 11.6719 6.32812 11.8672 6.25 12.2578C6.21094 12.4531 6.17188 12.6484 7.38281 12.9609L7.61719 13.0391C8.67188 13.3125 10.2344 13.7031 9.96094 15.2656C9.80469 16.0859 9.10156 16.5938 8.08594 16.7109C8.08594 16.75 8.125 16.75 8.125 16.75V17.375C8.125 17.7266 7.8125 18 7.5 18C7.14844 18 6.875 17.7266 6.875 17.375V16.75V16.7109C6.44531 16.6328 6.01562 16.5156 5.625 16.3984L5.42969 16.3203C5.07812 16.2031 4.92188 15.8516 5 15.5391C5.11719 15.2266 5.46875 15.0312 5.78125 15.1484L5.97656 15.1875C6.32812 15.3047 6.75781 15.4219 7.07031 15.5C7.92969 15.6172 8.63281 15.4219 8.71094 15.0312C8.78906 14.7188 8.59375 14.5625 7.34375 14.25L7.07031 14.1719C6.28906 13.9766 4.72656 13.5859 5 12.0234C5.15625 11.2031 5.85938 10.6953 6.875 10.5391C6.875 10.5391 6.875 10.5391 6.875 10.5V9.875C6.875 9.5625 7.14844 9.25 7.5 9.25C7.8125 9.25 8.125 9.5625 8.125 9.875V10.5C8.125 10.5391 8.08594 10.5391 8.08594 10.5781C8.35938 10.6172 8.67188 10.6953 9.0625 10.8125C9.41406 10.9297 9.57031 11.2812 9.49219 11.5938C9.375 11.9062 9.02344 12.1016 8.71094 12.0234C8.4375 11.9062 8.125 11.8281 7.89062 11.7891Z" fill="#798C9A"/>
</svg>
